<?xml version="1.0" encoding="UTF-8" standalone="no"?><!DOCTYPE svg PUBLIC "-//W3C//DTD SVG 1.1//EN" "http://www.w3.org/Graphics/SVG/1.1/DTD/svg11.dtd"><!-- Generated by graphviz version 2.40.1 (20161225.0304)
 --><!-- Title: %0 Pages: 1 --><svg xmlns="http://www.w3.org/2000/svg" xmlns:xlink="http://www.w3.org/1999/xlink" width="2582pt" height="332pt" viewBox="0.00 0.00 2582.03 332.00">
<g id="graph0" class="graph" transform="scale(1 1) rotate(0) translate(4 328)">
<title>%0</title>
<polygon fill="#ffffff" stroke="transparent" points="-4,4 -4,-328 2578.0323,-328 2578.0323,4 -4,4"/>
<!-- cross -->
<g id="node1" class="node">
<title>cross</title>
<ellipse fill="none" stroke="#000000" cx="704.229" cy="-18" rx="72.3458" ry="18"/>
<text text-anchor="middle" x="704.229" y="-13.8" font-family="Times,serif" font-size="14.00" fill="#000000">sbt-crossproject</text>
</g>
<!-- fix -->
<g id="node2" class="node">
<title>fix</title>
<ellipse fill="none" stroke="#000000" cx="1756.229" cy="-234" rx="55.5908" ry="18"/>
<text text-anchor="middle" x="1756.229" y="-229.8" font-family="Times,serif" font-size="14.00" fill="#000000">sbt-scalafix</text>
</g>
<!-- fmt -->
<g id="node3" class="node">
<title>fmt</title>
<ellipse fill="none" stroke="#000000" cx="58.229" cy="-234" rx="58.459" ry="18"/>
<text text-anchor="middle" x="58.229" y="-229.8" font-family="Times,serif" font-size="14.00" fill="#000000">sbt-scalafmt</text>
</g>
<!-- git -->
<g id="node4" class="node">
<title>git</title>
<ellipse fill="none" stroke="#000000" cx="921.229" cy="-18" rx="35.931" ry="18"/>
<text text-anchor="middle" x="921.229" y="-13.8" font-family="Times,serif" font-size="14.00" fill="#000000">sbt-git</text>
</g>
<!-- gpg -->
<g id="node5" class="node">
<title>gpg</title>
<ellipse fill="none" stroke="#000000" cx="2058.229" cy="-90" rx="40.0089" ry="18"/>
<text text-anchor="middle" x="2058.229" y="-85.8" font-family="Times,serif" font-size="14.00" fill="#000000">sbt-gpg</text>
</g>
<!-- header -->
<g id="node6" class="node">
<title>header</title>
<ellipse fill="none" stroke="#000000" cx="185.229" cy="-234" rx="51.003" ry="18"/>
<text text-anchor="middle" x="185.229" y="-229.8" font-family="Times,serif" font-size="14.00" fill="#000000">sbt-header</text>
</g>
<!-- laika -->
<g id="node7" class="node">
<title>laika</title>
<ellipse fill="none" stroke="#000000" cx="1396.229" cy="-90" rx="44.0775" ry="18"/>
<text text-anchor="middle" x="1396.229" y="-85.8" font-family="Times,serif" font-size="14.00" fill="#000000">laika-sbt</text>
</g>
<!-- mdoc -->
<g id="node8" class="node">
<title>mdoc</title>
<ellipse fill="none" stroke="#000000" cx="1287.229" cy="-90" rx="46.9497" ry="18"/>
<text text-anchor="middle" x="1287.229" y="-85.8" font-family="Times,serif" font-size="14.00" fill="#000000">sbt-mdoc</text>
</g>
<!-- mima -->
<g id="node9" class="node">
<title>mima</title>
<ellipse fill="none" stroke="#000000" cx="2214.229" cy="-18" rx="75.3195" ry="18"/>
<text text-anchor="middle" x="2214.229" y="-13.8" font-family="Times,serif" font-size="14.00" fill="#000000">sbt-mima-plugin</text>
</g>
<!-- sn -->
<g id="node10" class="node">
<title>sn</title>
<ellipse fill="none" stroke="#000000" cx="1090.229" cy="-18" rx="71.7621" ry="18"/>
<text text-anchor="middle" x="1090.229" y="-13.8" font-family="Times,serif" font-size="14.00" fill="#000000">sbt-scala-native</text>
</g>
<!-- sncp -->
<g id="node11" class="node">
<title>sncp</title>
<ellipse fill="none" stroke="#000000" cx="376.229" cy="-234" rx="121.4988" ry="18"/>
<text text-anchor="middle" x="376.229" y="-229.8" font-family="Times,serif" font-size="14.00" fill="#000000">sbt-scala-native-crossproject</text>
</g>
<!-- sonatype -->
<g id="node12" class="node">
<title>sonatype</title>
<ellipse fill="none" stroke="#000000" cx="2392.229" cy="-18" rx="59.6916" ry="18"/>
<text text-anchor="middle" x="2392.229" y="-13.8" font-family="Times,serif" font-size="14.00" fill="#000000">sbt-sonatype</text>
</g>
<!-- sjs -->
<g id="node13" class="node">
<title>sjs</title>
<ellipse fill="none" stroke="#000000" cx="1231.229" cy="-18" rx="51.0165" ry="18"/>
<text text-anchor="middle" x="1231.229" y="-13.8" font-family="Times,serif" font-size="14.00" fill="#000000">sbt-scalajs</text>
</g>
<!-- sjscp -->
<g id="node14" class="node">
<title>sjscp</title>
<ellipse fill="none" stroke="#000000" cx="617.229" cy="-234" rx="101.2524" ry="18"/>
<text text-anchor="middle" x="617.229" y="-229.8" font-family="Times,serif" font-size="14.00" fill="#000000">sbt-scalajs-crossproject</text>
</g>
<!-- unidoc -->
<g id="node15" class="node">
<title>unidoc</title>
<ellipse fill="none" stroke="#000000" cx="2522.229" cy="-18" rx="51.6073" ry="18"/>
<text text-anchor="middle" x="2522.229" y="-13.8" font-family="Times,serif" font-size="14.00" fill="#000000">sbt-unidoc</text>
</g>
<!-- tlkernel -->
<g id="node16" class="node">
<title>tlkernel</title>
<ellipse fill="none" stroke="#ff4c61" cx="1468.229" cy="-18" rx="88.0191" ry="18"/>
<text text-anchor="middle" x="1468.229" y="-13.8" font-family="Times,serif" font-size="14.00" fill="#000000">sbt-typelevel-kernel</text>
</g>
<!-- tlnopub -->
<g id="node17" class="node">
<title>tlnopub</title>
<ellipse fill="none" stroke="#ff4c61" cx="1601.229" cy="-90" rx="105.3779" ry="18"/>
<text text-anchor="middle" x="1601.229" y="-85.8" font-family="Times,serif" font-size="14.00" fill="#000000">sbt-typelevel-no-publish</text>
</g>
<!-- tlsettings -->
<g id="node18" class="node">
<title>tlsettings</title>
<ellipse fill="none" stroke="#ff4c61" cx="704.229" cy="-90" rx="93.7726" ry="18"/>
<text text-anchor="middle" x="704.229" y="-85.8" font-family="Times,serif" font-size="14.00" fill="#000000">sbt-typelevel-settings</text>
</g>
<!-- tlsettings&#45;&gt;cross -->
<g id="edge3" class="edge">
<title>tlsettings-&gt;cross</title>
<path fill="none" stroke="#000000" d="M704.229,-71.8314C704.229,-64.131 704.229,-54.9743 704.229,-46.4166"/>
<polygon fill="#000000" stroke="#000000" points="707.7291,-46.4132 704.229,-36.4133 700.7291,-46.4133 707.7291,-46.4132"/>
</g>
<!-- tlsettings&#45;&gt;git -->
<g id="edge2" class="edge">
<title>tlsettings-&gt;git</title>
<path fill="none" stroke="#000000" d="M751.3148,-74.3771C790.168,-61.4857 844.6875,-43.3963 881.3992,-31.2154"/>
<polygon fill="#000000" stroke="#000000" points="882.8647,-34.4169 891.2537,-27.9457 880.6603,-27.773 882.8647,-34.4169"/>
</g>
<!-- tlsettings&#45;&gt;tlkernel -->
<g id="edge1" class="edge">
<title>tlsettings-&gt;tlkernel</title>
<path fill="none" stroke="#000000" d="M771.126,-77.3218C783.1162,-75.3316 795.5197,-73.455 807.229,-72 1021.2881,-45.4009 1076.3545,-54.9135 1291.229,-36 1320.0026,-33.4673 1351.3734,-30.3831 1379.6045,-27.4882"/>
<polygon fill="#000000" stroke="#000000" points="1380.2644,-30.9388 1389.8527,-26.4316 1379.5465,-23.9757 1380.2644,-30.9388"/>
</g>
<!-- tlgithub -->
<g id="node19" class="node">
<title>tlgithub</title>
<ellipse fill="none" stroke="#ff4c61" cx="1133.229" cy="-90" rx="88.6236" ry="18"/>
<text text-anchor="middle" x="1133.229" y="-85.8" font-family="Times,serif" font-size="14.00" fill="#000000">sbt-typelevel-github</text>
</g>
<!-- tlgithub&#45;&gt;git -->
<g id="edge5" class="edge">
<title>tlgithub-&gt;git</title>
<path fill="none" stroke="#000000" d="M1087.4892,-74.4657C1049.66,-61.6181 996.4977,-43.5629 960.5544,-31.3558"/>
<polygon fill="#000000" stroke="#000000" points="961.4946,-27.9788 950.9003,-28.077 959.2435,-34.607 961.4946,-27.9788"/>
</g>
<!-- tlgithub&#45;&gt;sn -->
<g id="edge7" class="edge">
<title>tlgithub-&gt;sn</title>
<path fill="none" stroke="#000000" d="M1122.3783,-71.8314C1117.4521,-63.5829 1111.5281,-53.6635 1106.1147,-44.5992"/>
<polygon fill="#000000" stroke="#000000" points="1109.0597,-42.7042 1100.9273,-35.9134 1103.0499,-46.2935 1109.0597,-42.7042"/>
</g>
<!-- tlgithub&#45;&gt;sjs -->
<g id="edge6" class="edge">
<title>tlgithub-&gt;sjs</title>
<path fill="none" stroke="#000000" d="M1156.9521,-72.5708C1170.0872,-62.9206 1186.5593,-50.8186 1200.6518,-40.4649"/>
<polygon fill="#000000" stroke="#000000" points="1203.0813,-43.0231 1209.0678,-34.2817 1198.9367,-37.3819 1203.0813,-43.0231"/>
</g>
<!-- tlgithub&#45;&gt;tlkernel -->
<g id="edge4" class="edge">
<title>tlgithub-&gt;tlkernel</title>
<path fill="none" stroke="#000000" d="M1194.2837,-76.8778C1251.5793,-64.5635 1337.2478,-46.1512 1397.4952,-33.2025"/>
<polygon fill="#000000" stroke="#000000" points="1398.2702,-36.6159 1407.3115,-31.0927 1396.7993,-29.7722 1398.2702,-36.6159"/>
</g>
<!-- tlversioning -->
<g id="node20" class="node">
<title>tlversioning</title>
<ellipse fill="none" stroke="#ff4c61" cx="921.229" cy="-90" rx="104.7945" ry="18"/>
<text text-anchor="middle" x="921.229" y="-85.8" font-family="Times,serif" font-size="14.00" fill="#000000">sbt-typelevel-versioning</text>
</g>
<!-- tlversioning&#45;&gt;git -->
<g id="edge9" class="edge">
<title>tlversioning-&gt;git</title>
<path fill="none" stroke="#000000" d="M921.229,-71.8314C921.229,-64.131 921.229,-54.9743 921.229,-46.4166"/>
<polygon fill="#000000" stroke="#000000" points="924.7291,-46.4132 921.229,-36.4133 917.7291,-46.4133 924.7291,-46.4132"/>
</g>
<!-- tlversioning&#45;&gt;tlkernel -->
<g id="edge8" class="edge">
<title>tlversioning-&gt;tlkernel</title>
<path fill="none" stroke="#000000" d="M997.5227,-77.6022C1010.1092,-75.658 1023.0275,-73.7236 1035.229,-72 1154.8248,-55.1053 1293.4046,-38.3091 1380.9328,-28.0418"/>
<polygon fill="#000000" stroke="#000000" points="1381.5599,-31.4924 1391.0851,-26.8533 1380.7459,-24.5399 1381.5599,-31.4924"/>
</g>
<!-- tlmima -->
<g id="node21" class="node">
<title>tlmima</title>
<ellipse fill="none" stroke="#ff4c61" cx="2202.229" cy="-90" rx="86.2503" ry="18"/>
<text text-anchor="middle" x="2202.229" y="-85.8" font-family="Times,serif" font-size="14.00" fill="#000000">sbt-typelevel-mima</text>
</g>
<!-- tlmima&#45;&gt;mima -->
<g id="edge11" class="edge">
<title>tlmima-&gt;mima</title>
<path fill="none" stroke="#000000" d="M2205.2571,-71.8314C2206.5405,-64.131 2208.0666,-54.9743 2209.4929,-46.4166"/>
<polygon fill="#000000" stroke="#000000" points="2212.9685,-46.8526 2211.1602,-36.4133 2206.0637,-45.7018 2212.9685,-46.8526"/>
</g>
<!-- tlmima&#45;&gt;tlkernel -->
<g id="edge10" class="edge">
<title>tlmima-&gt;tlkernel</title>
<path fill="none" stroke="#000000" d="M2140.5461,-77.3585C2129.4853,-75.3644 2118.0398,-73.477 2107.229,-72 1915.4446,-45.7982 1689.4258,-30.2791 1564.1326,-23.0178"/>
<polygon fill="#000000" stroke="#000000" points="1563.9917,-19.5041 1553.8075,-22.425 1563.5904,-26.4926 1563.9917,-19.5041"/>
</g>
<!-- tlsonatype -->
<g id="node22" class="node">
<title>tlsonatype</title>
<ellipse fill="none" stroke="#ff4c61" cx="2405.229" cy="-90" rx="98.4139" ry="18"/>
<text text-anchor="middle" x="2405.229" y="-85.8" font-family="Times,serif" font-size="14.00" fill="#000000">sbt-typelevel-sonatype</text>
</g>
<!-- tlsonatype&#45;&gt;mima -->
<g id="edge14" class="edge">
<title>tlsonatype-&gt;mima</title>
<path fill="none" stroke="#000000" d="M2361.8882,-73.6621C2332.8879,-62.73 2294.6309,-48.3086 2264.3248,-36.8843"/>
<polygon fill="#000000" stroke="#000000" points="2265.3782,-33.541 2254.7863,-33.2886 2262.909,-40.0911 2265.3782,-33.541"/>
</g>
<!-- tlsonatype&#45;&gt;sonatype -->
<g id="edge13" class="edge">
<title>tlsonatype-&gt;sonatype</title>
<path fill="none" stroke="#000000" d="M2401.9486,-71.8314C2400.5582,-64.131 2398.905,-54.9743 2397.3598,-46.4166"/>
<polygon fill="#000000" stroke="#000000" points="2400.7749,-45.6322 2395.5536,-36.4133 2393.8862,-46.8761 2400.7749,-45.6322"/>
</g>
<!-- tlsonatype&#45;&gt;unidoc -->
<g id="edge15" class="edge">
<title>tlsonatype-&gt;unidoc</title>
<path fill="none" stroke="#000000" d="M2433.5515,-72.5708C2449.9073,-62.5057 2470.5971,-49.7735 2487.8773,-39.1395"/>
<polygon fill="#000000" stroke="#000000" points="2489.8797,-42.017 2496.5619,-33.7951 2486.211,-36.0554 2489.8797,-42.017"/>
</g>
<!-- tlsonatype&#45;&gt;tlkernel -->
<g id="edge12" class="edge">
<title>tlsonatype-&gt;tlkernel</title>
<path fill="none" stroke="#000000" d="M2335.3681,-77.3074C2322.7066,-75.3064 2309.5973,-73.4299 2297.229,-72 2033.9232,-41.5596 1721.4347,-26.9953 1566.0732,-21.2004"/>
<polygon fill="#000000" stroke="#000000" points="1565.7375,-17.6857 1555.6153,-20.8147 1565.4795,-24.6809 1565.7375,-17.6857"/>
</g>
<!-- tlgha -->
<g id="node23" class="node">
<title>tlgha</title>
<ellipse fill="none" stroke="#ff4c61" cx="1881.229" cy="-90" rx="119.2595" ry="18"/>
<text text-anchor="middle" x="1881.229" y="-85.8" font-family="Times,serif" font-size="14.00" fill="#000000">sbt-typelevel-github-actions</text>
</g>
<!-- tlcisigning -->
<g id="node24" class="node">
<title>tlcisigning</title>
<ellipse fill="none" stroke="#ff4c61" cx="2058.229" cy="-162" rx="102.5053" ry="18"/>
<text text-anchor="middle" x="2058.229" y="-157.8" font-family="Times,serif" font-size="14.00" fill="#000000">sbt-typelevel-ci-signing</text>
</g>
<!-- tlcisigning&#45;&gt;gpg -->
<g id="edge17" class="edge">
<title>tlcisigning-&gt;gpg</title>
<path fill="none" stroke="#000000" d="M2058.229,-143.8314C2058.229,-136.131 2058.229,-126.9743 2058.229,-118.4166"/>
<polygon fill="#000000" stroke="#000000" points="2061.7291,-118.4132 2058.229,-108.4133 2054.7291,-118.4133 2061.7291,-118.4132"/>
</g>
<!-- tlcisigning&#45;&gt;tlgha -->
<g id="edge16" class="edge">
<title>tlcisigning-&gt;tlgha</title>
<path fill="none" stroke="#000000" d="M2017.1768,-145.3008C1991.8719,-135.0073 1959.2192,-121.7248 1932.2574,-110.7573"/>
<polygon fill="#000000" stroke="#000000" points="1933.5612,-107.5092 1922.9794,-106.9832 1930.9236,-113.9933 1933.5612,-107.5092"/>
</g>
<!-- tlsonatypecirelease -->
<g id="node25" class="node">
<title>tlsonatypecirelease</title>
<ellipse fill="none" stroke="#ff4c61" cx="2356.229" cy="-162" rx="138.8159" ry="18"/>
<text text-anchor="middle" x="2356.229" y="-157.8" font-family="Times,serif" font-size="14.00" fill="#000000">sbt-typelevel-sonatype-ci-release</text>
</g>
<!-- tlsonatypecirelease&#45;&gt;tlsonatype -->
<g id="edge18" class="edge">
<title>tlsonatypecirelease-&gt;tlsonatype</title>
<path fill="none" stroke="#000000" d="M2368.5938,-143.8314C2374.2658,-135.497 2381.0988,-125.4567 2387.3194,-116.3162"/>
<polygon fill="#000000" stroke="#000000" points="2390.3052,-118.1498 2393.038,-107.9134 2384.5182,-114.2114 2390.3052,-118.1498"/>
</g>
<!-- tlsonatypecirelease&#45;&gt;tlgha -->
<g id="edge19" class="edge">
<title>tlsonatypecirelease-&gt;tlgha</title>
<path fill="none" stroke="#000000" d="M2265.7671,-148.2879C2182.7376,-135.7023 2060.18,-117.1252 1975.8592,-104.3439"/>
<polygon fill="#000000" stroke="#000000" points="1976.1826,-100.8531 1965.7709,-102.8148 1975.1334,-107.774 1976.1826,-100.8531"/>
</g>
<!-- tlci -->
<g id="node26" class="node">
<title>tlci</title>
<ellipse fill="none" stroke="#ff4c61" cx="1659.229" cy="-162" rx="71.2017" ry="18"/>
<text text-anchor="middle" x="1659.229" y="-157.8" font-family="Times,serif" font-size="14.00" fill="#000000">sbt-typelevel-ci</text>
</g>
<!-- tlci&#45;&gt;tlkernel -->
<g id="edge20" class="edge">
<title>tlci-&gt;tlkernel</title>
<path fill="none" stroke="#000000" d="M1682.6443,-144.9345C1705.5021,-126.2037 1734.2696,-95.653 1715.229,-72 1695.7066,-47.7484 1621.9802,-33.7928 1560.1142,-26.1692"/>
<polygon fill="#000000" stroke="#000000" points="1560.2472,-22.6604 1549.9037,-24.9542 1559.42,-29.6114 1560.2472,-22.6604"/>
</g>
<!-- tlci&#45;&gt;tlnopub -->
<g id="edge21" class="edge">
<title>tlci-&gt;tlnopub</title>
<path fill="none" stroke="#000000" d="M1644.8919,-144.2022C1637.9904,-135.6348 1629.5853,-125.2009 1621.9994,-115.7839"/>
<polygon fill="#000000" stroke="#000000" points="1624.6012,-113.4344 1615.6022,-107.8425 1619.1499,-117.8258 1624.6012,-113.4344"/>
</g>
<!-- tlci&#45;&gt;tlgha -->
<g id="edge22" class="edge">
<title>tlci-&gt;tlgha</title>
<path fill="none" stroke="#000000" d="M1703.0891,-147.7751C1736.8442,-136.8275 1783.868,-121.5766 1821.1265,-109.4927"/>
<polygon fill="#000000" stroke="#000000" points="1822.4322,-112.7488 1830.8646,-106.3344 1820.2726,-106.0902 1822.4322,-112.7488"/>
</g>
<!-- tlfix -->
<g id="node27" class="node">
<title>tlfix</title>
<ellipse fill="none" stroke="#ff4c61" cx="1756.229" cy="-306" rx="94.3137" ry="18"/>
<text text-anchor="middle" x="1756.229" y="-301.8" font-family="Times,serif" font-size="14.00" fill="#000000">sbt-typelevel-scalafix</text>
</g>
<!-- tlfix&#45;&gt;fix -->
<g id="edge23" class="edge">
<title>tlfix-&gt;fix</title>
<path fill="none" stroke="#000000" d="M1756.229,-287.8314C1756.229,-280.131 1756.229,-270.9743 1756.229,-262.4166"/>
<polygon fill="#000000" stroke="#000000" points="1759.7291,-262.4132 1756.229,-252.4133 1752.7291,-262.4133 1759.7291,-262.4132"/>
</g>
<!-- tlmergify -->
<g id="node28" class="node">
<title>tlmergify</title>
<ellipse fill="none" stroke="#ff4c61" cx="1843.229" cy="-162" rx="94.8993" ry="18"/>
<text text-anchor="middle" x="1843.229" y="-157.8" font-family="Times,serif" font-size="14.00" fill="#000000">sbt-typelevel-mergify</text>
</g>
<!-- tlmergify&#45;&gt;tlgha -->
<g id="edge24" class="edge">
<title>tlmergify-&gt;tlgha</title>
<path fill="none" stroke="#000000" d="M1852.818,-143.8314C1857.0608,-135.7925 1862.1411,-126.1666 1866.825,-117.2918"/>
<polygon fill="#000000" stroke="#000000" points="1869.9386,-118.8908 1871.5109,-108.4133 1863.7479,-115.6235 1869.9386,-118.8908"/>
</g>
<!-- tlsite -->
<g id="node29" class="node">
<title>tlsite</title>
<ellipse fill="none" stroke="#ff4c61" cx="1425.229" cy="-162" rx="77.5801" ry="18"/>
<text text-anchor="middle" x="1425.229" y="-157.8" font-family="Times,serif" font-size="14.00" fill="#000000">sbt-typelevel-site</text>
</g>
<!-- tlsite&#45;&gt;laika -->
<g id="edge30" class="edge">
<title>tlsite-&gt;laika</title>
<path fill="none" stroke="#000000" d="M1417.9111,-143.8314C1414.6926,-135.8406 1410.8426,-126.2819 1407.2858,-117.4514"/>
<polygon fill="#000000" stroke="#000000" points="1410.4269,-115.8816 1403.4442,-107.9134 1403.9338,-118.4969 1410.4269,-115.8816"/>
</g>
<!-- tlsite&#45;&gt;mdoc -->
<g id="edge29" class="edge">
<title>tlsite-&gt;mdoc</title>
<path fill="none" stroke="#000000" d="M1393.569,-145.4817C1372.9592,-134.7288 1345.9889,-120.6573 1324.3672,-109.3764"/>
<polygon fill="#000000" stroke="#000000" points="1325.9472,-106.2531 1315.4623,-104.7304 1322.7092,-112.4592 1325.9472,-106.2531"/>
</g>
<!-- tlsite&#45;&gt;tlkernel -->
<g id="edge25" class="edge">
<title>tlsite-&gt;tlkernel</title>
<path fill="none" stroke="#000000" d="M1434.4297,-143.8812C1439.3708,-133.5716 1445.247,-120.298 1449.229,-108 1455.7779,-87.7746 1460.6537,-64.2465 1463.8255,-46.3201"/>
<polygon fill="#000000" stroke="#000000" points="1467.3168,-46.6658 1465.5379,-36.2214 1460.4153,-45.4955 1467.3168,-46.6658"/>
</g>
<!-- tlsite&#45;&gt;tlnopub -->
<g id="edge28" class="edge">
<title>tlsite-&gt;tlnopub</title>
<path fill="none" stroke="#000000" d="M1463.853,-146.1993C1489.4691,-135.72 1523.3382,-121.8644 1551.0368,-110.5332"/>
<polygon fill="#000000" stroke="#000000" points="1552.6229,-113.6659 1560.5532,-106.6401 1549.9725,-107.1871 1552.6229,-113.6659"/>
</g>
<!-- tlsite&#45;&gt;tlgithub -->
<g id="edge26" class="edge">
<title>tlsite-&gt;tlgithub</title>
<path fill="none" stroke="#000000" d="M1372.0113,-148.8778C1323.5636,-136.9318 1251.8423,-119.2471 1199.6536,-106.3787"/>
<polygon fill="#000000" stroke="#000000" points="1200.3651,-102.9493 1189.8179,-103.9534 1198.6892,-109.7458 1200.3651,-102.9493"/>
</g>
<!-- tlsite&#45;&gt;tlgha -->
<g id="edge27" class="edge">
<title>tlsite-&gt;tlgha</title>
<path fill="none" stroke="#000000" d="M1489.5955,-151.8369C1567.6046,-139.5197 1699.6285,-118.6738 1788.5767,-104.6293"/>
<polygon fill="#000000" stroke="#000000" points="1789.3315,-108.0536 1798.6633,-103.0367 1788.2397,-101.1392 1789.3315,-108.0536"/>
</g>
<!-- tlcirelease -->
<g id="node30" class="node">
<title>tlcirelease</title>
<polygon fill="none" stroke="#ff4c61" points="1682.3216,-252 1536.1365,-252 1536.1365,-216 1682.3216,-216 1682.3216,-252"/>
<text text-anchor="middle" x="1609.229" y="-229.8" font-family="Times,serif" font-size="14.00" fill="#000000">sbt-typelevel-ci-release</text>
</g>
<!-- tlcirelease&#45;&gt;tlnopub -->
<g id="edge37" class="edge">
<title>tlcirelease-&gt;tlnopub</title>
<path fill="none" stroke="#000000" d="M1595.8728,-215.5137C1589.4782,-205.5235 1582.511,-192.6657 1579.229,-180 1573.7821,-158.9794 1580.198,-135.1008 1587.4798,-117.2241"/>
<polygon fill="#000000" stroke="#000000" points="1590.729,-118.5297 1591.5446,-107.9663 1584.3196,-115.7155 1590.729,-118.5297"/>
</g>
<!-- tlcirelease&#45;&gt;tlgithub -->
<g id="edge32" class="edge">
<title>tlcirelease-&gt;tlgithub</title>
<path fill="none" stroke="#000000" d="M1535.9736,-223.8188C1480.8215,-215.0974 1403.7755,-200.6491 1338.229,-180 1279.7594,-161.5804 1215.5259,-131.6972 1174.8224,-111.4664"/>
<polygon fill="#000000" stroke="#000000" points="1176.2615,-108.2728 1165.7528,-106.9245 1173.127,-114.5318 1176.2615,-108.2728"/>
</g>
<!-- tlcirelease&#45;&gt;tlversioning -->
<g id="edge33" class="edge">
<title>tlcirelease-&gt;tlversioning</title>
<path fill="none" stroke="#000000" d="M1535.8312,-225.9313C1461.5877,-217.1244 1343.749,-201.3742 1243.229,-180 1150.3986,-160.2609 1044.7976,-129.0234 980.6058,-109.0271"/>
<polygon fill="#000000" stroke="#000000" points="981.2561,-105.5633 970.6672,-105.9178 979.166,-112.244 981.2561,-105.5633"/>
</g>
<!-- tlcirelease&#45;&gt;tlmima -->
<g id="edge34" class="edge">
<title>tlcirelease-&gt;tlmima</title>
<path fill="none" stroke="#000000" d="M1682.4523,-217.3903C1685.4108,-216.8894 1688.3448,-216.4228 1691.229,-216 1744.037,-208.259 2127.8081,-212.3893 2170.229,-180 2189.1977,-165.517 2196.9523,-138.8751 2200.1065,-118.3219"/>
<polygon fill="#000000" stroke="#000000" points="2203.601,-118.5831 2201.3716,-108.2255 2196.6553,-117.7128 2203.601,-118.5831"/>
</g>
<!-- tlcirelease&#45;&gt;tlcisigning -->
<g id="edge36" class="edge">
<title>tlcirelease-&gt;tlcisigning</title>
<path fill="none" stroke="#000000" d="M1682.4911,-217.6276C1685.4388,-217.0609 1688.36,-216.5158 1691.229,-216 1804.313,-195.6678 1833.626,-197.1968 1947.229,-180 1955.7139,-178.7156 1964.5576,-177.3416 1973.3867,-175.9466"/>
<polygon fill="#000000" stroke="#000000" points="1974.0024,-179.3927 1983.329,-174.3663 1972.9036,-172.4795 1974.0024,-179.3927"/>
</g>
<!-- tlcirelease&#45;&gt;tlsonatypecirelease -->
<g id="edge35" class="edge">
<title>tlcirelease-&gt;tlsonatypecirelease</title>
<path fill="none" stroke="#000000" d="M1682.4498,-217.3726C1685.409,-216.8766 1688.3438,-216.4158 1691.229,-216 1917.0134,-183.4585 1976.1113,-201.3326 2203.229,-180 2216.9427,-178.7119 2231.3307,-177.2136 2245.5667,-175.6418"/>
<polygon fill="#000000" stroke="#000000" points="2246.3453,-179.0766 2255.894,-174.4863 2245.5668,-172.12 2246.3453,-179.0766"/>
</g>
<!-- tlcirelease&#45;&gt;tlci -->
<g id="edge31" class="edge">
<title>tlcirelease-&gt;tlci</title>
<path fill="none" stroke="#000000" d="M1621.8461,-215.8314C1627.6339,-207.497 1634.6063,-197.4567 1640.9539,-188.3162"/>
<polygon fill="#000000" stroke="#000000" points="1643.96,-190.1235 1646.7892,-179.9134 1638.2104,-186.1307 1643.96,-190.1235"/>
</g>
<!-- tl -->
<g id="node31" class="node">
<title>tl</title>
<polygon fill="none" stroke="#ff4c61" points="541.541,-324 452.9171,-324 452.9171,-288 541.541,-288 541.541,-324"/>
<text text-anchor="middle" x="497.229" y="-301.8" font-family="Times,serif" font-size="14.00" fill="#000000">sbt-typelevel</text>
</g>
<!-- tl&#45;&gt;fmt -->
<g id="edge40" class="edge">
<title>tl-&gt;fmt</title>
<path fill="none" stroke="#000000" d="M452.841,-301.2779C382.7934,-293.4403 242.5152,-276.1791 125.229,-252 120.5363,-251.0326 115.6841,-249.9311 110.8354,-248.7607"/>
<polygon fill="#000000" stroke="#000000" points="111.4904,-245.3168 100.9397,-246.2823 109.7897,-252.107 111.4904,-245.3168"/>
</g>
<!-- tl&#45;&gt;header -->
<g id="edge41" class="edge">
<title>tl-&gt;header</title>
<path fill="none" stroke="#000000" d="M453.0146,-297.5317C402.6906,-287.6519 318.1472,-270.3196 246.229,-252 242.1363,-250.9575 237.9047,-249.8246 233.6673,-248.6517"/>
<polygon fill="#000000" stroke="#000000" points="234.407,-245.2236 223.8316,-245.866 232.4993,-251.9587 234.407,-245.2236"/>
</g>
<!-- tl&#45;&gt;sncp -->
<g id="edge43" class="edge">
<title>tl-&gt;sncp</title>
<path fill="none" stroke="#000000" d="M466.6956,-287.8314C450.9827,-278.4815 431.6619,-266.9848 414.9155,-257.02"/>
<polygon fill="#000000" stroke="#000000" points="416.2996,-253.7709 405.9161,-251.665 412.72,-259.7865 416.2996,-253.7709"/>
</g>
<!-- tl&#45;&gt;sjscp -->
<g id="edge42" class="edge">
<title>tl-&gt;sjscp</title>
<path fill="none" stroke="#000000" d="M527.5101,-287.8314C543.2103,-278.4112 562.5427,-266.8118 579.2365,-256.7955"/>
<polygon fill="#000000" stroke="#000000" points="581.4253,-259.5639 588.1995,-251.4177 577.8238,-253.5615 581.4253,-259.5639"/>
</g>
<!-- tl&#45;&gt;tlsettings -->
<g id="edge38" class="edge">
<title>tl-&gt;tlsettings</title>
<path fill="none" stroke="#000000" d="M541.4526,-302.038C601.6423,-295.6253 704.4938,-280.6913 727.229,-252 757.9497,-213.2313 736.2374,-152.2519 719.2077,-117.2136"/>
<polygon fill="#000000" stroke="#000000" points="722.2136,-115.4019 714.5761,-108.0589 715.9675,-118.562 722.2136,-115.4019"/>
</g>
<!-- tl&#45;&gt;tlcirelease -->
<g id="edge39" class="edge">
<title>tl-&gt;tlcirelease</title>
<path fill="none" stroke="#000000" d="M541.507,-303.1331C708.8102,-292.3005 1304.133,-253.7544 1525.5138,-239.4204"/>
<polygon fill="#000000" stroke="#000000" points="1526.0169,-242.8953 1535.7698,-238.7563 1525.5646,-235.9099 1526.0169,-242.8953"/>
</g>
</g>
</svg>