<?xml version="1.0" encoding="UTF-8" standalone="no"?>
<!DOCTYPE svg PUBLIC "-//W3C//DTD SVG 1.1//EN"
        "http://www.w3.org/Graphics/SVG/1.1/DTD/svg11.dtd">
<!-- Generated by graphviz version 10.0.1 (20240210.2158) -->
<!-- Pages: 1 -->
<svg width="2517pt" height="332pt"
     viewBox="0.00 0.00 2516.89 332.00" xmlns="http://www.w3.org/2000/svg">
    <g id="graph0" class="graph" transform="scale(1 1) rotate(0) translate(4 328)">
        <polygon fill="white" stroke="none" points="-4,4 -4,-328 2512.89,-328 2512.89,4 -4,4"/>
        <!-- cross -->
        <g id="node1" class="node">
            <title>cross</title>
            <ellipse fill="none" stroke="black" cx="678.23" cy="-18" rx="72.18" ry="18"/>
            <text text-anchor="middle" x="678.23" y="-13.8" font-family="Times,serif" font-size="14.00">sbt&#45;crossproject</text>
        </g>
        <!-- fix -->
        <g id="node2" class="node">
            <title>fix</title>
            <ellipse fill="none" stroke="black" cx="1771.23" cy="-234" rx="55.55" ry="18"/>
            <text text-anchor="middle" x="1771.23" y="-229.8" font-family="Times,serif" font-size="14.00">sbt&#45;scalafix</text>
        </g>
        <!-- fmt -->
        <g id="node3" class="node">
            <title>fmt</title>
            <ellipse fill="none" stroke="black" cx="58.23" cy="-234" rx="58.23" ry="18"/>
            <text text-anchor="middle" x="58.23" y="-229.8" font-family="Times,serif" font-size="14.00">sbt&#45;scalafmt</text>
        </g>
        <!-- git -->
        <g id="node4" class="node">
            <title>git</title>
            <ellipse fill="none" stroke="black" cx="895.23" cy="-18" rx="35.72" ry="18"/>
            <text text-anchor="middle" x="895.23" y="-13.8" font-family="Times,serif" font-size="14.00">sbt&#45;git</text>
        </g>
        <!-- gpg -->
        <g id="node5" class="node">
            <title>gpg</title>
            <ellipse fill="none" stroke="black" cx="2223.23" cy="-90" rx="40.01" ry="18"/>
            <text text-anchor="middle" x="2223.23" y="-85.8" font-family="Times,serif" font-size="14.00">sbt&#45;gpg</text>
        </g>
        <!-- header -->
        <g id="node6" class="node">
            <title>header</title>
            <ellipse fill="none" stroke="black" cx="185.23" cy="-234" rx="51.25" ry="18"/>
            <text text-anchor="middle" x="185.23" y="-229.8" font-family="Times,serif" font-size="14.00">sbt&#45;header</text>
        </g>
        <!-- laika -->
        <g id="node7" class="node">
            <title>laika</title>
            <ellipse fill="none" stroke="black" cx="1212.23" cy="-90" rx="44.29" ry="18"/>
            <text text-anchor="middle" x="1212.23" y="-85.8" font-family="Times,serif" font-size="14.00">laika&#45;sbt</text>
        </g>
        <!-- mdoc -->
        <g id="node8" class="node">
            <title>mdoc</title>
            <ellipse fill="none" stroke="black" cx="1103.23" cy="-90" rx="46.98" ry="18"/>
            <text text-anchor="middle" x="1103.23" y="-85.8" font-family="Times,serif" font-size="14.00">sbt&#45;mdoc</text>
        </g>
        <!-- mima -->
        <g id="node9" class="node">
            <title>mima</title>
            <ellipse fill="none" stroke="black" cx="1995.23" cy="-18" rx="75.41" ry="18"/>
            <text text-anchor="middle" x="1995.23" y="-13.8" font-family="Times,serif" font-size="14.00">sbt&#45;mima&#45;plugin</text>
        </g>
        <!-- sncp -->
        <g id="node10" class="node">
            <title>sncp</title>
            <ellipse fill="none" stroke="black" cx="376.23" cy="-234" rx="121.51" ry="18"/>
            <text text-anchor="middle" x="376.23" y="-229.8" font-family="Times,serif" font-size="14.00">sbt&#45;scala&#45;native&#45;crossproject</text>
        </g>
        <!-- sonatype -->
        <g id="node11" class="node">
            <title>sonatype</title>
            <ellipse fill="none" stroke="black" cx="2444.23" cy="-18" rx="59.85" ry="18"/>
            <text text-anchor="middle" x="2444.23" y="-13.8" font-family="Times,serif" font-size="14.00">sbt&#45;sonatype</text>
        </g>
        <!-- sjs -->
        <g id="node12" class="node">
            <title>sjs</title>
            <ellipse fill="none" stroke="black" cx="1442.23" cy="-18" rx="51.26" ry="18"/>
            <text text-anchor="middle" x="1442.23" y="-13.8" font-family="Times,serif" font-size="14.00">sbt&#45;scalajs</text>
        </g>
        <!-- sjscp -->
        <g id="node13" class="node">
            <title>sjscp</title>
            <ellipse fill="none" stroke="black" cx="617.23" cy="-234" rx="101.14" ry="18"/>
            <text text-anchor="middle" x="617.23" y="-229.8" font-family="Times,serif" font-size="14.00">sbt&#45;scalajs&#45;crossproject</text>
        </g>
        <!-- unidoc -->
        <g id="node14" class="node">
            <title>unidoc</title>
            <ellipse fill="none" stroke="black" cx="2314.23" cy="-18" rx="51.81" ry="18"/>
            <text text-anchor="middle" x="2314.23" y="-13.8" font-family="Times,serif" font-size="14.00">sbt&#45;unidoc</text>
        </g>
        <!-- tlkernel -->
        <g id="node15" class="node">
            <title>tlkernel</title>
            <ellipse fill="none" stroke="#ff4c61" cx="1284.23" cy="-18" rx="88.26" ry="18"/>
            <text text-anchor="middle" x="1284.23" y="-13.8" font-family="Times,serif" font-size="14.00">sbt&#45;typelevel&#45;kernel</text>
        </g>
        <!-- tlnopub -->
        <g id="node16" class="node">
            <title>tlnopub</title>
            <ellipse fill="none" stroke="#ff4c61" cx="1575.23" cy="-90" rx="105.44" ry="18"/>
            <text text-anchor="middle" x="1575.23" y="-85.8" font-family="Times,serif" font-size="14.00">sbt&#45;typelevel&#45;no&#45;publish</text>
        </g>
        <!-- tlsettings -->
        <g id="node17" class="node">
            <title>tlsettings</title>
            <ellipse fill="none" stroke="#ff4c61" cx="678.23" cy="-90" rx="93.64" ry="18"/>
            <text text-anchor="middle" x="678.23" y="-85.8" font-family="Times,serif" font-size="14.00">sbt&#45;typelevel&#45;settings</text>
        </g>
        <!-- tlsettings&#45;&gt;cross -->
        <g id="edge3" class="edge">
            <title>tlsettings&#45;&gt;cross</title>
            <path fill="none" stroke="black" d="M678.23,-71.7C678.23,-64.41 678.23,-55.73 678.23,-47.54"/>
            <polygon fill="black" stroke="black" points="681.73,-47.62 678.23,-37.62 674.73,-47.62 681.73,-47.62"/>
        </g>
        <!-- tlsettings&#45;&gt;git -->
        <g id="edge2" class="edge">
            <title>tlsettings&#45;&gt;git</title>
            <path fill="none" stroke="black" d="M724.78,-73.98C763.49,-61.5 818.03,-43.9 854.9,-32.01"/>
            <polygon fill="black" stroke="black" points="855.86,-35.38 864.3,-28.98 853.71,-28.72 855.86,-35.38"/>
        </g>
        <!-- tlsettings&#45;&gt;tlkernel -->
        <g id="edge1" class="edge">
            <title>tlsettings&#45;&gt;tlkernel</title>
            <path fill="none" stroke="black" d="M746.02,-77.23C757.74,-75.36 769.83,-73.54 781.23,-72 924.72,-52.62 1092.05,-36.21 1192.98,-26.99"/>
            <polygon fill="black" stroke="black" points="1193.2,-30.49 1202.84,-26.1 1192.56,-23.52 1193.2,-30.49"/>
        </g>
        <!-- tlgithub -->
        <g id="node18" class="node">
            <title>tlgithub</title>
            <ellipse fill="none" stroke="#ff4c61" cx="1363.23" cy="-90" rx="88.81" ry="18"/>
            <text text-anchor="middle" x="1363.23" y="-85.8" font-family="Times,serif" font-size="14.00">sbt&#45;typelevel&#45;github</text>
        </g>
        <!-- tlgithub&#45;&gt;git -->
        <g id="edge5" class="edge">
            <title>tlgithub&#45;&gt;git</title>
            <path fill="none" stroke="black" d="M1297.91,-77.39C1287.01,-75.53 1275.81,-73.67 1265.23,-72 1148.51,-53.52 1010.61,-34.51 940.74,-25.08"/>
            <polygon fill="black" stroke="black" points="941.59,-21.66 931.21,-23.8 940.66,-28.6 941.59,-21.66"/>
        </g>
        <!-- tlgithub&#45;&gt;sjs -->
        <g id="edge6" class="edge">
            <title>tlgithub&#45;&gt;sjs</title>
            <path fill="none" stroke="black" d="M1382.36,-72.05C1392.37,-63.18 1404.8,-52.17 1415.73,-42.49"/>
            <polygon fill="black" stroke="black" points="1417.8,-45.32 1422.97,-36.07 1413.16,-40.08 1417.8,-45.32"/>
        </g>
        <!-- tlgithub&#45;&gt;tlkernel -->
        <g id="edge4" class="edge">
            <title>tlgithub&#45;&gt;tlkernel</title>
            <path fill="none" stroke="black" d="M1344.11,-72.05C1334.48,-63.52 1322.62,-53.01 1312,-43.61"/>
            <polygon fill="black" stroke="black" points="1314.39,-41.05 1304.59,-37.04 1309.75,-46.29 1314.39,-41.05"/>
        </g>
        <!-- tlversioning -->
        <g id="node19" class="node">
            <title>tlversioning</title>
            <ellipse fill="none" stroke="#ff4c61" cx="895.23" cy="-90" rx="104.9" ry="18"/>
            <text text-anchor="middle" x="895.23" y="-85.8" font-family="Times,serif" font-size="14.00">sbt&#45;typelevel&#45;versioning</text>
        </g>
        <!-- tlversioning&#45;&gt;git -->
        <g id="edge8" class="edge">
            <title>tlversioning&#45;&gt;git</title>
            <path fill="none" stroke="black" d="M895.23,-71.7C895.23,-64.41 895.23,-55.73 895.23,-47.54"/>
            <polygon fill="black" stroke="black" points="898.73,-47.62 895.23,-37.62 891.73,-47.62 898.73,-47.62"/>
        </g>
        <!-- tlversioning&#45;&gt;tlkernel -->
        <g id="edge7" class="edge">
            <title>tlversioning&#45;&gt;tlkernel</title>
            <path fill="none" stroke="black" d="M965.68,-76.32C1034.26,-63.98 1138.16,-45.29 1208.49,-32.63"/>
            <polygon fill="black" stroke="black" points="1208.77,-36.14 1217.99,-30.92 1207.53,-29.25 1208.77,-36.14"/>
        </g>
        <!-- tlmima -->
        <g id="node20" class="node">
            <title>tlmima</title>
            <ellipse fill="none" stroke="#ff4c61" cx="1822.23" cy="-90" rx="86.12" ry="18"/>
            <text text-anchor="middle" x="1822.23" y="-85.8" font-family="Times,serif" font-size="14.00">sbt&#45;typelevel&#45;mima</text>
        </g>
        <!-- tlmima&#45;&gt;mima -->
        <g id="edge10" class="edge">
            <title>tlmima&#45;&gt;mima</title>
            <path fill="none" stroke="black" d="M1860.63,-73.46C1886.29,-63.08 1920.23,-49.35 1947.61,-38.27"/>
            <polygon fill="black" stroke="black" points="1948.77,-41.57 1956.73,-34.58 1946.15,-35.09 1948.77,-41.57"/>
        </g>
        <!-- tlmima&#45;&gt;tlkernel -->
        <g id="edge9" class="edge">
            <title>tlmima&#45;&gt;tlkernel</title>
            <path fill="none" stroke="black" d="M1758.31,-77.52C1746.34,-75.54 1733.92,-73.61 1722.23,-72 1571.7,-51.26 1532.73,-57 1382.23,-36 1374.88,-34.97 1367.23,-33.81 1359.59,-32.59"/>
            <polygon fill="black" stroke="black" points="1360.38,-29.17 1349.94,-31.01 1359.25,-36.08 1360.38,-29.17"/>
        </g>
        <!-- tlsonatype -->
        <g id="node21" class="node">
            <title>tlsonatype</title>
            <ellipse fill="none" stroke="#ff4c61" cx="2379.23" cy="-90" rx="98.46" ry="18"/>
            <text text-anchor="middle" x="2379.23" y="-85.8" font-family="Times,serif" font-size="14.00">sbt&#45;typelevel&#45;sonatype</text>
        </g>
        <!-- tlsonatype&#45;&gt;mima -->
        <g id="edge13" class="edge">
            <title>tlsonatype&#45;&gt;mima</title>
            <path fill="none" stroke="black" d="M2311.46,-76.65C2242.08,-64 2134.76,-44.43 2064.74,-31.67"/>
            <polygon fill="black" stroke="black" points="2065.79,-28.31 2055.33,-29.96 2064.54,-35.19 2065.79,-28.31"/>
        </g>
        <!-- tlsonatype&#45;&gt;sonatype -->
        <g id="edge12" class="edge">
            <title>tlsonatype&#45;&gt;sonatype</title>
            <path fill="none" stroke="black" d="M2394.97,-72.05C2402.79,-63.63 2412.4,-53.28 2421.05,-43.97"/>
            <polygon fill="black" stroke="black" points="2423.37,-46.61 2427.61,-36.9 2418.24,-41.84 2423.37,-46.61"/>
        </g>
        <!-- tlsonatype&#45;&gt;unidoc -->
        <g id="edge14" class="edge">
            <title>tlsonatype&#45;&gt;unidoc</title>
            <path fill="none" stroke="black" d="M2363.5,-72.05C2355.56,-63.5 2345.78,-52.97 2337.03,-43.56"/>
            <polygon fill="black" stroke="black" points="2339.77,-41.36 2330.4,-36.42 2334.64,-46.13 2339.77,-41.36"/>
        </g>
        <!-- tlsonatype&#45;&gt;tlkernel -->
        <g id="edge11" class="edge">
            <title>tlsonatype&#45;&gt;tlkernel</title>
            <path fill="none" stroke="black" d="M2310.03,-76.79C2297.48,-74.93 2284.49,-73.22 2272.23,-72 1878.29,-32.87 1775.89,-77.92 1382.23,-36 1374.32,-35.16 1366.09,-34.07 1357.9,-32.85"/>
            <polygon fill="black" stroke="black" points="1358.71,-29.43 1348.29,-31.35 1357.63,-36.35 1358.71,-29.43"/>
        </g>
        <!-- tlgha -->
        <g id="node22" class="node">
            <title>tlgha</title>
            <ellipse fill="none" stroke="#ff4c61" cx="2046.23" cy="-90" rx="119.38" ry="18"/>
            <text text-anchor="middle" x="2046.23" y="-85.8" font-family="Times,serif" font-size="14.00">sbt&#45;typelevel&#45;github&#45;actions</text>
        </g>
        <!-- tlcisigning -->
        <g id="node23" class="node">
            <title>tlcisigning</title>
            <ellipse fill="none" stroke="#ff4c61" cx="2111.23" cy="-162" rx="102.75" ry="18"/>
            <text text-anchor="middle" x="2111.23" y="-157.8" font-family="Times,serif" font-size="14.00">sbt&#45;typelevel&#45;ci&#45;signing</text>
        </g>
        <!-- tlcisigning&#45;&gt;gpg -->
        <g id="edge16" class="edge">
            <title>tlcisigning&#45;&gt;gpg</title>
            <path fill="none" stroke="black" d="M2138.06,-144.23C2153.96,-134.29 2174.22,-121.63 2190.99,-111.15"/>
            <polygon fill="black" stroke="black" points="2192.5,-114.34 2199.12,-106.07 2188.79,-108.4 2192.5,-114.34"/>
        </g>
        <!-- tlcisigning&#45;&gt;tlgha -->
        <g id="edge15" class="edge">
            <title>tlcisigning&#45;&gt;tlgha</title>
            <path fill="none" stroke="black" d="M2095.5,-144.05C2087.87,-135.84 2078.54,-125.79 2070.06,-116.66"/>
            <polygon fill="black" stroke="black" points="2072.67,-114.33 2063.3,-109.38 2067.54,-119.09 2072.67,-114.33"/>
        </g>
        <!-- tlsonatypecirelease -->
        <g id="node24" class="node">
            <title>tlsonatypecirelease</title>
            <ellipse fill="none" stroke="#ff4c61" cx="2370.23" cy="-162" rx="138.66" ry="18"/>
            <text text-anchor="middle" x="2370.23" y="-157.8" font-family="Times,serif" font-size="14.00">sbt&#45;typelevel&#45;sonatype&#45;ci&#45;release</text>
        </g>
        <!-- tlsonatypecirelease&#45;&gt;tlsonatype -->
        <g id="edge17" class="edge">
            <title>tlsonatypecirelease&#45;&gt;tlsonatype</title>
            <path fill="none" stroke="black" d="M2372.46,-143.7C2373.4,-136.32 2374.54,-127.52 2375.6,-119.25"/>
            <polygon fill="black" stroke="black" points="2379.04,-119.97 2376.84,-109.61 2372.09,-119.08 2379.04,-119.97"/>
        </g>
        <!-- tlsonatypecirelease&#45;&gt;tlgha -->
        <g id="edge18" class="edge">
            <title>tlsonatypecirelease&#45;&gt;tlgha</title>
            <path fill="none" stroke="black" d="M2300.73,-145.98C2248.73,-134.75 2177.63,-119.39 2123.79,-107.76"/>
            <polygon fill="black" stroke="black" points="2124.57,-104.34 2114.06,-105.65 2123.09,-111.19 2124.57,-104.34"/>
        </g>
        <!-- tlci -->
        <g id="node25" class="node">
            <title>tlci</title>
            <ellipse fill="none" stroke="#ff4c61" cx="1674.23" cy="-162" rx="71.1" ry="18"/>
            <text text-anchor="middle" x="1674.23" y="-157.8" font-family="Times,serif" font-size="14.00">sbt&#45;typelevel&#45;ci</text>
        </g>
        <!-- tlci&#45;&gt;tlkernel -->
        <g id="edge19" class="edge">
            <title>tlci&#45;&gt;tlkernel</title>
            <path fill="none" stroke="black" d="M1684.35,-144C1694.66,-124.23 1706.83,-91.79 1689.23,-72 1643.58,-20.68 1450.21,-45.87 1382.23,-36 1375.03,-34.95 1367.54,-33.79 1360.05,-32.58"/>
            <polygon fill="black" stroke="black" points="1360.66,-29.13 1350.22,-30.95 1359.52,-36.04 1360.66,-29.13"/>
        </g>
        <!-- tlci&#45;&gt;tlnopub -->
        <g id="edge20" class="edge">
            <title>tlci&#45;&gt;tlnopub</title>
            <path fill="none" stroke="black" d="M1651.02,-144.59C1638.3,-135.59 1622.31,-124.29 1608.3,-114.38"/>
            <polygon fill="black" stroke="black" points="1610.41,-111.58 1600.22,-108.67 1606.37,-117.3 1610.41,-111.58"/>
        </g>
        <!-- tlci&#45;&gt;tlgha -->
        <g id="edge21" class="edge">
            <title>tlci&#45;&gt;tlgha</title>
            <path fill="none" stroke="black" d="M1729.92,-150.52C1791.49,-138.94 1891.33,-120.15 1962.37,-106.78"/>
            <polygon fill="black" stroke="black" points="1962.85,-110.25 1972.03,-104.96 1961.55,-103.37 1962.85,-110.25"/>
        </g>
        <!-- tlfix -->
        <g id="node26" class="node">
            <title>tlfix</title>
            <ellipse fill="none" stroke="#ff4c61" cx="1771.23" cy="-306" rx="94.16" ry="18"/>
            <text text-anchor="middle" x="1771.23" y="-301.8" font-family="Times,serif" font-size="14.00">sbt&#45;typelevel&#45;scalafix</text>
        </g>
        <!-- tlfix&#45;&gt;fix -->
        <g id="edge22" class="edge">
            <title>tlfix&#45;&gt;fix</title>
            <path fill="none" stroke="black" d="M1771.23,-287.7C1771.23,-280.41 1771.23,-271.73 1771.23,-263.54"/>
            <polygon fill="black" stroke="black" points="1774.73,-263.62 1771.23,-253.62 1767.73,-263.62 1774.73,-263.62"/>
        </g>
        <!-- tlmergify -->
        <g id="node27" class="node">
            <title>tlmergify</title>
            <ellipse fill="none" stroke="#ff4c61" cx="1896.23" cy="-162" rx="94.7" ry="18"/>
            <text text-anchor="middle" x="1896.23" y="-157.8" font-family="Times,serif" font-size="14.00">sbt&#45;typelevel&#45;mergify</text>
        </g>
        <!-- tlmergify&#45;&gt;tlgha -->
        <g id="edge23" class="edge">
            <title>tlmergify&#45;&gt;tlgha</title>
            <path fill="none" stroke="black" d="M1930.65,-144.94C1951.33,-135.29 1977.9,-122.89 2000.36,-112.41"/>
            <polygon fill="black" stroke="black" points="2001.72,-115.63 2009.3,-108.23 1998.76,-109.29 2001.72,-115.63"/>
        </g>
        <!-- tlsite -->
        <g id="node28" class="node">
            <title>tlsite</title>
            <ellipse fill="none" stroke="#ff4c61" cx="1295.23" cy="-162" rx="77.54" ry="18"/>
            <text text-anchor="middle" x="1295.23" y="-157.8" font-family="Times,serif" font-size="14.00">sbt&#45;typelevel&#45;site</text>
        </g>
        <!-- tlsite&#45;&gt;laika -->
        <g id="edge29" class="edge">
            <title>tlsite&#45;&gt;laika</title>
            <path fill="none" stroke="black" d="M1275.56,-144.41C1264.79,-135.33 1251.27,-123.93 1239.5,-114"/>
            <polygon fill="black" stroke="black" points="1241.96,-111.5 1232.06,-107.72 1237.45,-116.85 1241.96,-111.5"/>
        </g>
        <!-- tlsite&#45;&gt;mdoc -->
        <g id="edge28" class="edge">
            <title>tlsite&#45;&gt;mdoc</title>
            <path fill="none" stroke="black" d="M1254.98,-146.33C1223.37,-134.8 1179.41,-118.77 1146.94,-106.93"/>
            <polygon fill="black" stroke="black" points="1148.42,-103.75 1137.82,-103.61 1146.02,-110.33 1148.42,-103.75"/>
        </g>
        <!-- tlsite&#45;&gt;tlkernel -->
        <g id="edge24" class="edge">
            <title>tlsite&#45;&gt;tlkernel</title>
            <path fill="none" stroke="black" d="M1222.4,-155.41C1157.32,-148.72 1068.97,-134.87 1047.23,-108 1003.43,-53.85 1104.67,-32.64 1188.17,-24.33"/>
            <polygon fill="black" stroke="black" points="1188.42,-27.82 1198.05,-23.41 1187.76,-20.85 1188.42,-27.82"/>
        </g>
        <!-- tlsite&#45;&gt;tlnopub -->
        <g id="edge27" class="edge">
            <title>tlsite&#45;&gt;tlnopub</title>
            <path fill="none" stroke="black" d="M1346.59,-148.16C1391.5,-136.93 1457.09,-120.53 1506.52,-108.18"/>
            <polygon fill="black" stroke="black" points="1507.12,-111.64 1515.97,-105.82 1505.42,-104.85 1507.12,-111.64"/>
        </g>
        <!-- tlsite&#45;&gt;tlgithub -->
        <g id="edge25" class="edge">
            <title>tlsite&#45;&gt;tlgithub</title>
            <path fill="none" stroke="black" d="M1311.69,-144.05C1319.88,-135.63 1329.93,-125.28 1338.98,-115.97"/>
            <polygon fill="black" stroke="black" points="1341.41,-118.49 1345.87,-108.87 1336.39,-113.61 1341.41,-118.49"/>
        </g>
        <!-- tlsite&#45;&gt;tlgha -->
        <g id="edge26" class="edge">
            <title>tlsite&#45;&gt;tlgha</title>
            <path fill="none" stroke="black" d="M1368.59,-155.85C1485.03,-147.42 1719.25,-129.47 1917.23,-108 1927.57,-106.88 1938.35,-105.61 1949.1,-104.29"/>
            <polygon fill="black" stroke="black" points="1949.27,-107.79 1958.75,-103.08 1948.4,-100.85 1949.27,-107.79"/>
        </g>
        <!-- tlcirelease -->
        <g id="node29" class="node">
            <title>tlcirelease</title>
            <polygon fill="none" stroke="#ff4c61" points="1697.53,-252 1550.94,-252 1550.94,-216 1697.53,-216 1697.53,-252"/>
            <text text-anchor="middle" x="1624.23" y="-229.8" font-family="Times,serif" font-size="14.00">sbt&#45;typelevel&#45;ci&#45;release</text>
        </g>
        <!-- tlcirelease&#45;&gt;tlnopub -->
        <g id="edge36" class="edge">
            <title>tlcirelease&#45;&gt;tlnopub</title>
            <path fill="none" stroke="black" d="M1612.54,-215.51C1606.3,-205.49 1598.96,-192.46 1594.23,-180 1586.81,-160.44 1581.98,-137.3 1579.05,-119.51"/>
            <polygon fill="black" stroke="black" points="1582.52,-119.02 1577.54,-109.67 1575.6,-120.08 1582.52,-119.02"/>
        </g>
        <!-- tlcirelease&#45;&gt;tlgithub -->
        <g id="edge31" class="edge">
            <title>tlcirelease&#45;&gt;tlgithub</title>
            <path fill="none" stroke="black" d="M1592.23,-215.59C1544.5,-189.62 1454.75,-140.79 1402.91,-112.59"/>
            <polygon fill="black" stroke="black" points="1404.86,-109.67 1394.41,-107.96 1401.52,-115.81 1404.86,-109.67"/>
        </g>
        <!-- tlcirelease&#45;&gt;tlversioning -->
        <g id="edge32" class="edge">
            <title>tlcirelease&#45;&gt;tlversioning</title>
            <path fill="none" stroke="black" d="M1550.79,-227.01C1467.24,-219.41 1326.99,-204.31 1208.23,-180 1117.51,-161.43 1014.65,-130.16 952.38,-110.06"/>
            <polygon fill="black" stroke="black" points="953.65,-106.79 943.06,-107.03 951.49,-113.45 953.65,-106.79"/>
        </g>
        <!-- tlcirelease&#45;&gt;tlmima -->
        <g id="edge33" class="edge">
            <title>tlcirelease&#45;&gt;tlmima</title>
            <path fill="none" stroke="black" d="M1685.67,-215.54C1708.62,-207.14 1734,-195.47 1754.23,-180 1776.23,-163.18 1794.8,-137.53 1806.94,-118.08"/>
            <polygon fill="black" stroke="black" points="1809.9,-119.95 1812.07,-109.58 1803.91,-116.34 1809.9,-119.95"/>
        </g>
        <!-- tlcirelease&#45;&gt;tlcisigning -->
        <g id="edge35" class="edge">
            <title>tlcirelease&#45;&gt;tlcisigning</title>
            <path fill="none" stroke="black" d="M1697.94,-217.42C1700.73,-216.92 1703.51,-216.45 1706.23,-216 1836.13,-194.62 1869.82,-197.97 2000.23,-180 2008.42,-178.87 2016.95,-177.65 2025.47,-176.4"/>
            <polygon fill="black" stroke="black" points="2025.77,-179.89 2035.15,-174.96 2024.74,-172.97 2025.77,-179.89"/>
        </g>
        <!-- tlcirelease&#45;&gt;tlsonatypecirelease -->
        <g id="edge34" class="edge">
            <title>tlcirelease&#45;&gt;tlsonatypecirelease</title>
            <path fill="none" stroke="black" d="M1697.91,-217.24C1700.71,-216.79 1703.5,-216.38 1706.23,-216 1934.41,-184.55 1993.88,-201.24 2223.23,-180 2235.4,-178.87 2248.12,-177.58 2260.77,-176.22"/>
            <polygon fill="black" stroke="black" points="2260.79,-179.74 2270.35,-175.17 2260.03,-172.78 2260.79,-179.74"/>
        </g>
        <!-- tlcirelease&#45;&gt;tlci -->
        <g id="edge30" class="edge">
            <title>tlcirelease&#45;&gt;tlci</title>
            <path fill="none" stroke="black" d="M1636.59,-215.7C1642.28,-207.73 1649.16,-198.1 1655.47,-189.26"/>
            <polygon fill="black" stroke="black" points="1658.17,-191.51 1661.13,-181.34 1652.47,-187.44 1658.17,-191.51"/>
        </g>
        <!-- tl -->
        <g id="node30" class="node">
            <title>tl</title>
            <polygon fill="none" stroke="#ff4c61" points="541.39,-324 453.08,-324 453.08,-288 541.39,-288 541.39,-324"/>
            <text text-anchor="middle" x="497.23" y="-301.8" font-family="Times,serif" font-size="14.00">sbt&#45;typelevel</text>
        </g>
        <!-- tl&#45;&gt;fmt -->
        <g id="edge39" class="edge">
            <title>tl&#45;&gt;fmt</title>
            <path fill="none" stroke="black" d="M452.59,-300.2C382.5,-292.32 242.51,-275.16 125.23,-252 120.92,-251.15 116.47,-250.19 112.01,-249.18"/>
            <polygon fill="black" stroke="black" points="112.98,-245.81 102.44,-246.92 111.37,-252.62 112.98,-245.81"/>
        </g>
        <!-- tl&#45;&gt;header -->
        <g id="edge40" class="edge">
            <title>tl&#45;&gt;header</title>
            <path fill="none" stroke="black" d="M452.87,-296.63C402.37,-286.88 317.51,-269.82 245.23,-252 241.71,-251.13 238.08,-250.2 234.44,-249.24"/>
            <polygon fill="black" stroke="black" points="235.57,-245.91 225,-246.67 233.73,-252.67 235.57,-245.91"/>
        </g>
        <!-- tl&#45;&gt;sncp -->
        <g id="edge42" class="edge">
            <title>tl&#45;&gt;sncp</title>
            <path fill="none" stroke="black" d="M467.01,-287.52C451.21,-278.38 431.7,-267.09 414.82,-257.32"/>
            <polygon fill="black" stroke="black" points="416.95,-254.51 406.55,-252.54 413.45,-260.57 416.95,-254.51"/>
        </g>
        <!-- tl&#45;&gt;sjscp -->
        <g id="edge41" class="edge">
            <title>tl&#45;&gt;sjscp</title>
            <path fill="none" stroke="black" d="M527.2,-287.52C542.99,-278.31 562.51,-266.92 579.33,-257.11"/>
            <polygon fill="black" stroke="black" points="580.7,-260.36 587.57,-252.3 577.17,-254.32 580.7,-260.36"/>
        </g>
        <!-- tl&#45;&gt;tlsettings -->
        <g id="edge37" class="edge">
            <title>tl&#45;&gt;tlsettings</title>
            <path fill="none" stroke="black" d="M541.7,-301.21C601.91,-295.05 704.49,-280.58 727.23,-252 759.08,-211.98 724.46,-151.42 699.39,-117.11"/>
            <polygon fill="black" stroke="black" points="702.37,-115.25 693.54,-109.38 696.78,-119.47 702.37,-115.25"/>
        </g>
        <!-- tl&#45;&gt;tlcirelease -->
        <g id="edge38" class="edge">
            <title>tl&#45;&gt;tlcirelease</title>
            <path fill="none" stroke="black" d="M541.76,-302.23C710.77,-291.74 1314.34,-254.25 1539.1,-240.29"/>
            <polygon fill="black" stroke="black" points="1539.2,-243.79 1548.96,-239.68 1538.76,-236.8 1539.2,-243.79"/>
        </g>
    </g>
</svg>
