<?xml version="1.0" encoding="UTF-8"?>

<svg
    width="120px"
    height="40px"
    viewBox="0 0 1054 348"
    version="1.1"
    xmlns="http://www.w3.org/2000/svg"
    xmlns:xlink="http://www.w3.org/1999/xlink">

    <defs>
        <linearGradient x1="0%" y1="61%" x2="100%" y2="37%" id="background-gradient">
            <stop stop-color="#FF4C61" offset="0%"></stop>
            <stop stop-color="#F51C2B" offset="100%"></stop>
        </linearGradient>
    </defs>

    <g>
        <path d="M419.765714,55.1106383 L419.765714,133.12766 L398.525714,133.12766 L398.525714,55.1106383 L381.078571,55.1106383 L381.078571,36.9319149 L437.971429,36.9319149 L437.971429,55.1106383 L419.765714,55.1106383 L419.765714,55.1106383 Z M495.622857,98.2851064 L495.622857,133.12766 L474.382857,133.12766 L474.382857,98.2851064 L450.108571,36.1744681 L473.624286,36.1744681 L485.002857,76.3191489 L496.381429,36.1744681 L519.897143,36.1744681 L495.622857,98.2851064 L495.622857,98.2851064 Z M600.305714,67.2297872 C600.305714,72.5319149 599.547143,77.0765957 598.03,80.8638298 C596.512857,84.6510638 594.237143,87.6808511 591.202857,90.7106383 C588.168571,93.7404255 585.134286,95.2553191 582.1,96.012766 C579.065714,96.7702128 575.272857,97.5276596 571.48,97.5276596 L562.377143,97.5276596 L562.377143,132.370213 L541.137143,132.370213 L541.137143,36.9319149 L571.48,36.9319149 C575.272857,36.9319149 578.307143,37.6893617 582.1,38.4468085 C585.892857,39.2042553 588.927143,41.4765957 591.961429,43.7489362 C594.995714,46.0212766 597.271429,49.0510638 598.788571,52.8382979 C599.547143,56.6255319 600.305714,61.1702128 600.305714,67.2297872 L600.305714,67.2297872 Z M579.824286,67.2297872 C579.824286,62.6851064 579.065714,59.6553191 576.79,58.1404255 C574.514286,55.8680851 572.238571,55.1106383 569.204286,55.1106383 L562.377143,55.1106383 L562.377143,80.106383 L569.204286,80.106383 C572.238571,80.106383 574.514286,79.3489362 576.79,77.0765957 C579.065714,74.8042553 579.824286,71.7744681 579.824286,67.2297872 L579.824286,67.2297872 Z M622.304286,133.12766 L622.304286,36.9319149 L669.335714,36.9319149 L669.335714,55.8680851 L642.785714,55.8680851 L642.785714,74.8042553 L666.301429,74.8042553 L666.301429,92.9829787 L642.785714,92.9829787 L642.785714,113.434043 L670.094286,113.434043 L670.094286,133.12766 L622.304286,133.12766 L622.304286,133.12766 Z M696.644286,133.12766 L696.644286,36.9319149 L718.642857,36.9319149 L718.642857,113.434043 L744.434286,113.434043 L744.434286,133.885106 L696.644286,133.885106 L696.644286,133.12766 Z M767.95,133.12766 L767.95,36.9319149 L814.981429,36.9319149 L814.981429,55.8680851 L789.19,55.8680851 L789.19,74.8042553 L812.705714,74.8042553 L812.705714,92.9829787 L789.19,92.9829787 L789.19,113.434043 L816.498571,113.434043 L816.498571,133.12766 L767.95,133.12766 L767.95,133.12766 Z M885.528571,133.12766 L857.461429,133.12766 L833.945714,36.9319149 L858.978571,36.9319149 L871.874286,107.374468 L884.77,36.9319149 L908.285714,36.9319149 L885.528571,133.12766 L885.528571,133.12766 Z M931.042857,133.12766 L931.042857,36.9319149 L978.074286,36.9319149 L978.074286,55.8680851 L952.282857,55.8680851 L952.282857,74.8042553 L975.798571,74.8042553 L975.798571,92.9829787 L952.282857,92.9829787 L952.282857,113.434043 L979.591429,113.434043 L979.591429,133.12766 L931.042857,133.12766 L931.042857,133.12766 Z M1006.14143,133.12766 L1006.14143,36.9319149 L1028.14,36.9319149 L1028.14,113.434043 L1053.93143,113.434043 L1053.93143,133.885106 L1006.14143,133.885106 L1006.14143,133.12766 Z M429.627143,233.868085 C428.11,231.595745 425.834286,230.838298 423.558571,229.323404 C421.282857,228.565957 419.007143,227.808511 416.731429,227.808511 C414.455714,227.808511 412.18,228.565957 409.904286,230.080851 C407.628571,231.595745 406.87,233.868085 406.87,237.655319 C406.87,240.685106 407.628571,242.957447 409.904286,244.47234 C412.18,245.987234 415.214286,248.259574 419.007143,249.774468 C421.282857,250.531915 423.558571,252.046809 425.834286,253.561702 C428.11,255.076596 430.385714,256.591489 432.661429,258.86383 C434.937143,261.13617 436.454286,263.408511 437.971429,266.438298 C439.488571,269.468085 440.247143,273.255319 440.247143,277.042553 C440.247143,282.344681 439.488571,286.889362 437.971429,290.676596 C436.454286,294.46383 434.178571,298.251064 431.144286,300.523404 C428.11,302.795745 425.075714,305.068085 421.282857,306.582979 C417.49,308.097872 413.697143,308.855319 409.904286,308.855319 C403.835714,308.855319 398.525714,308.097872 393.974286,305.825532 C389.422857,303.553191 385.63,301.280851 382.595714,298.251064 L393.974286,281.587234 C396.25,283.859574 398.525714,285.374468 401.56,286.889362 C404.594286,288.404255 406.87,289.161702 409.904286,289.161702 C412.18,289.161702 414.455714,288.404255 416.731429,286.889362 C418.248571,285.374468 419.765714,283.102128 419.765714,279.314894 C419.765714,276.285106 419.007143,273.255319 416.731429,271.740426 C414.455714,270.225532 411.421429,267.953191 406.87,265.680851 L399.284286,261.13617 C397.008571,259.621277 394.732857,258.106383 393.215714,255.834043 C391.698571,253.561702 390.181429,251.289362 389.422857,248.259574 C388.664286,245.229787 387.905714,242.2 387.905714,237.655319 C387.905714,232.353191 388.664286,227.808511 390.94,224.021277 C392.457143,220.234043 394.732857,217.204255 397.767143,214.174468 C400.801429,211.902128 403.835714,209.629787 407.628571,208.87234 C411.421429,207.357447 414.455714,207.357447 418.248571,207.357447 C423.558571,207.357447 428.11,208.114894 432.661429,209.629787 C437.212857,211.144681 440.247143,213.417021 443.281429,216.446809 L429.627143,233.868085 L429.627143,233.868085 Z M511.552857,305.825532 C507.001429,308.097872 501.691429,309.612766 494.864286,309.612766 C489.554286,309.612766 484.244286,308.097872 479.692857,305.825532 C475.141429,303.553191 471.348571,299.765957 467.555714,295.221277 C463.762857,290.676596 461.487143,285.374468 459.97,279.314894 C458.452857,273.255319 456.935714,266.438298 456.935714,258.86383 C456.935714,251.289362 457.694286,244.47234 459.97,238.412766 C461.487143,232.353191 464.521429,227.051064 467.555714,222.506383 C470.59,217.961702 475.141429,214.931915 479.692857,211.902128 C484.244286,209.629787 489.554286,208.114894 494.864286,208.114894 C501.691429,208.114894 507.001429,209.629787 510.794286,211.902128 C514.587143,214.174468 518.38,217.204255 521.414286,220.234043 L510.035714,236.140426 C508.518571,233.868085 506.242857,232.353191 504.725714,230.838298 C503.208571,229.323404 500.174286,228.565957 497.14,228.565957 C494.105714,228.565957 491.83,229.323404 489.554286,230.838298 C487.278571,232.353191 485.761429,234.625532 484.244286,236.897872 C482.727143,239.92766 481.968571,242.957447 481.21,246.744681 C480.451429,250.531915 480.451429,254.319149 480.451429,258.86383 C480.451429,263.408511 480.451429,267.195745 481.21,270.225532 C481.968571,274.012766 482.727143,277.042553 484.244286,280.07234 C485.761429,283.102128 487.278571,284.617021 489.554286,286.131915 C491.83,287.646809 494.105714,288.404255 497.14,288.404255 C500.174286,288.404255 502.45,287.646809 504.725714,286.131915 C507.001429,284.617021 508.518571,283.102128 510.035714,280.829787 L522.172857,295.978723 C519.897143,300.523404 516.104286,303.553191 511.552857,305.825532 L511.552857,305.825532 Z M585.892857,307.340426 L582.1,289.919149 L560.101429,289.919149 L556.308571,307.340426 L534.31,307.340426 L557.825714,211.144681 L585.134286,211.144681 L608.65,307.340426 L585.892857,307.340426 L585.892857,307.340426 Z M571.48,231.595745 L562.377143,272.497872 L579.065714,272.497872 L571.48,231.595745 L571.48,231.595745 Z M630.648571,307.340426 L630.648571,211.144681 L652.647143,211.144681 L652.647143,287.646809 L678.438571,287.646809 L678.438571,308.097872 L630.648571,308.097872 L630.648571,307.340426 Z M745.192857,307.340426 L741.4,289.919149 L719.401429,289.919149 L715.608571,307.340426 L693.61,307.340426 L717.125714,211.144681 L744.434286,211.144681 L767.95,307.340426 L745.192857,307.340426 L745.192857,307.340426 Z M730.021429,231.595745 L720.918571,272.497872 L737.607143,272.497872 L730.021429,231.595745 L730.021429,231.595745 Z" fill="#21303F" />

        <g id="logo">
            <polygon fill="url(#background-gradient)" points="151 348 0 260 0 88 151 0 302 88 302 260" />
            <polygon fill="#FF6169" points="99 214 99 254 193 199 193 159" />
            <polygon fill="#FF6169" points="134 194 99 174 193 119 228 139" />
            <polygon fill="#FF6169" points="99 134 64 114 158 59 193 79" />
            <polygon fill="#FFB4B5" points="134 194 134 234 228 179 228 139" />
            <polygon fill="#FFB4B5" points="99 134 99 174 193 119 193 79" />
            <polygon fill="#FFFFFF" points="64 234 99 254 99 214 134 234 134 194 99 174 99 134 64 114" />
        </g>
    </g>
</svg>
