<?xml version="1.0" encoding="UTF-8" standalone="no"?>
<!DOCTYPE svg PUBLIC "-//W3C//DTD SVG 1.1//EN" "http://www.w3.org/Graphics/SVG/1.1/DTD/svg11.dtd">
<!-- Generated by graphviz version 2.40.1 (20161225.0304)
 -->
<!-- Title: %0 Pages: 1 -->
<svg width="1629pt" height="332pt" viewBox="0.00 0.00 1628.87 332.00" xmlns="http://www.w3.org/2000/svg" xmlns:xlink="http://www.w3.org/1999/xlink">
<g id="graph0" class="graph" transform="scale(1 1) rotate(0) translate(4 328)">
<title>%0</title>
<polygon fill="#ffffff" stroke="transparent" points="-4,4 -4,-328 1624.8652,-328 1624.8652,4 -4,4"/>
<!-- fmt -->
<g id="node1" class="node">
<title>fmt</title>
<ellipse fill="none" stroke="#000000" cx="58.229" cy="-162" rx="58.459" ry="18"/>
<text text-anchor="middle" x="58.229" y="-157.8" font-family="Times,serif" font-size="14.00" fill="#000000">sbt-scalafmt</text>
</g>
<!-- gha -->
<g id="node2" class="node">
<title>gha</title>
<ellipse fill="none" stroke="#000000" cx="426.229" cy="-90" rx="80.5373" ry="18"/>
<text text-anchor="middle" x="426.229" y="-85.8" font-family="Times,serif" font-size="14.00" fill="#000000">sbt-github-actions</text>
</g>
<!-- git -->
<g id="node3" class="node">
<title>git</title>
<ellipse fill="none" stroke="#000000" cx="1311.229" cy="-90" rx="35.931" ry="18"/>
<text text-anchor="middle" x="1311.229" y="-85.8" font-family="Times,serif" font-size="14.00" fill="#000000">sbt-git</text>
</g>
<!-- gpg -->
<g id="node4" class="node">
<title>gpg</title>
<ellipse fill="none" stroke="#000000" cx="755.229" cy="-90" rx="40.0089" ry="18"/>
<text text-anchor="middle" x="755.229" y="-85.8" font-family="Times,serif" font-size="14.00" fill="#000000">sbt-gpg</text>
</g>
<!-- header -->
<g id="node5" class="node">
<title>header</title>
<ellipse fill="none" stroke="#000000" cx="261.229" cy="-162" rx="51.003" ry="18"/>
<text text-anchor="middle" x="261.229" y="-157.8" font-family="Times,serif" font-size="14.00" fill="#000000">sbt-header</text>
</g>
<!-- mima -->
<g id="node6" class="node">
<title>mima</title>
<ellipse fill="none" stroke="#000000" cx="497.229" cy="-18" rx="75.3195" ry="18"/>
<text text-anchor="middle" x="497.229" y="-13.8" font-family="Times,serif" font-size="14.00" fill="#000000">sbt-mima-plugin</text>
</g>
<!-- sonatype -->
<g id="node7" class="node">
<title>sonatype</title>
<ellipse fill="none" stroke="#000000" cx="229.229" cy="-18" rx="59.6916" ry="18"/>
<text text-anchor="middle" x="229.229" y="-13.8" font-family="Times,serif" font-size="14.00" fill="#000000">sbt-sonatype</text>
</g>
<!-- sjs -->
<g id="node8" class="node">
<title>sjs</title>
<ellipse fill="none" stroke="#000000" cx="1130.229" cy="-90" rx="51.0165" ry="18"/>
<text text-anchor="middle" x="1130.229" y="-85.8" font-family="Times,serif" font-size="14.00" fill="#000000">sbt-scalajs</text>
</g>
<!-- sjscp -->
<g id="node9" class="node">
<title>sjscp</title>
<ellipse fill="none" stroke="#000000" cx="1054.229" cy="-234" rx="101.2524" ry="18"/>
<text text-anchor="middle" x="1054.229" y="-229.8" font-family="Times,serif" font-size="14.00" fill="#000000">sbt-scalajs-crossproject</text>
</g>
<!-- tlkernel -->
<g id="node10" class="node">
<title>tlkernel</title>
<ellipse fill="none" stroke="#ff4c61" cx="1130.229" cy="-18" rx="88.0191" ry="18"/>
<text text-anchor="middle" x="1130.229" y="-13.8" font-family="Times,serif" font-size="14.00" fill="#000000">sbt-typelevel-kernel</text>
</g>
<!-- tlnopub -->
<g id="node11" class="node">
<title>tlnopub</title>
<ellipse fill="none" stroke="#ff4c61" cx="918.229" cy="-90" rx="105.3779" ry="18"/>
<text text-anchor="middle" x="918.229" y="-85.8" font-family="Times,serif" font-size="14.00" fill="#000000">sbt-typelevel-no-publish</text>
</g>
<!-- tlsettings -->
<g id="node12" class="node">
<title>tlsettings</title>
<ellipse fill="none" stroke="#ff4c61" cx="1527.229" cy="-162" rx="93.7726" ry="18"/>
<text text-anchor="middle" x="1527.229" y="-157.8" font-family="Times,serif" font-size="14.00" fill="#000000">sbt-typelevel-settings</text>
</g>
<!-- tlsettings&#45;&gt;git -->
<g id="edge2" class="edge">
<title>tlsettings-&gt;git</title>
<path fill="none" stroke="#000000" d="M1480.3602,-146.3771C1441.6861,-133.4857 1387.4178,-115.3963 1350.8753,-103.2154"/>
<polygon fill="#000000" stroke="#000000" points="1351.6599,-99.7877 1341.0662,-99.9457 1349.4462,-106.4285 1351.6599,-99.7877"/>
</g>
<!-- tlsettings&#45;&gt;tlkernel -->
<g id="edge1" class="edge">
<title>tlsettings-&gt;tlkernel</title>
<path fill="none" stroke="#000000" d="M1499.4994,-144.6149C1466.4839,-124.5859 1409.144,-91.8877 1356.229,-72 1308.2209,-53.9565 1252.1577,-40.5164 1207.8803,-31.5576"/>
<polygon fill="#000000" stroke="#000000" points="1208.5356,-28.1194 1198.045,-29.6017 1207.1702,-34.985 1208.5356,-28.1194"/>
</g>
<!-- tlgithub -->
<g id="node13" class="node">
<title>tlgithub</title>
<ellipse fill="none" stroke="#ff4c61" cx="1098.229" cy="-162" rx="88.6236" ry="18"/>
<text text-anchor="middle" x="1098.229" y="-157.8" font-family="Times,serif" font-size="14.00" fill="#000000">sbt-typelevel-github</text>
</g>
<!-- tlgithub&#45;&gt;git -->
<g id="edge4" class="edge">
<title>tlgithub-&gt;git</title>
<path fill="none" stroke="#000000" d="M1143.9229,-146.5542C1181.9125,-133.7126 1235.4258,-115.6236 1271.6202,-103.3889"/>
<polygon fill="#000000" stroke="#000000" points="1272.9898,-106.6206 1281.3424,-100.1025 1270.7481,-99.9892 1272.9898,-106.6206"/>
</g>
<!-- tlgithub&#45;&gt;sjs -->
<g id="edge5" class="edge">
<title>tlgithub-&gt;sjs</title>
<path fill="none" stroke="#000000" d="M1106.304,-143.8314C1109.8936,-135.7547 1114.1952,-126.0761 1118.1549,-117.1668"/>
<polygon fill="#000000" stroke="#000000" points="1121.4044,-118.473 1122.2675,-107.9134 1115.0077,-115.63 1121.4044,-118.473"/>
</g>
<!-- tlgithub&#45;&gt;tlkernel -->
<g id="edge3" class="edge">
<title>tlgithub-&gt;tlkernel</title>
<path fill="none" stroke="#000000" d="M1144.4737,-146.3616C1162.0306,-137.9088 1180.1982,-125.5187 1190.229,-108 1198.1793,-94.115 1196.7384,-86.616 1190.229,-72 1184.9654,-60.1812 1175.6951,-49.864 1165.9925,-41.5023"/>
<polygon fill="#000000" stroke="#000000" points="1168.1728,-38.7643 1158.1868,-35.2244 1163.7857,-44.219 1168.1728,-38.7643"/>
</g>
<!-- tlversioning -->
<g id="node14" class="node">
<title>tlversioning</title>
<ellipse fill="none" stroke="#ff4c61" cx="1310.229" cy="-162" rx="104.7945" ry="18"/>
<text text-anchor="middle" x="1310.229" y="-157.8" font-family="Times,serif" font-size="14.00" fill="#000000">sbt-typelevel-versioning</text>
</g>
<!-- tlversioning&#45;&gt;git -->
<g id="edge7" class="edge">
<title>tlversioning-&gt;git</title>
<path fill="none" stroke="#000000" d="M1310.4814,-143.8314C1310.5883,-136.131 1310.7155,-126.9743 1310.8344,-118.4166"/>
<polygon fill="#000000" stroke="#000000" points="1314.334,-118.4609 1310.9733,-108.4133 1307.3347,-118.3637 1314.334,-118.4609"/>
</g>
<!-- tlversioning&#45;&gt;tlkernel -->
<g id="edge6" class="edge">
<title>tlversioning-&gt;tlkernel</title>
<path fill="none" stroke="#000000" d="M1290.7672,-144.1694C1270.2202,-125.5819 1236.6551,-95.8859 1206.229,-72 1192.8611,-61.5055 1177.6737,-50.5355 1164.4082,-41.2454"/>
<polygon fill="#000000" stroke="#000000" points="1166.2156,-38.2393 1156.0069,-35.405 1162.22,-43.9869 1166.2156,-38.2393"/>
</g>
<!-- tlmima -->
<g id="node15" class="node">
<title>tlmima</title>
<ellipse fill="none" stroke="#ff4c61" cx="611.229" cy="-90" rx="86.2503" ry="18"/>
<text text-anchor="middle" x="611.229" y="-85.8" font-family="Times,serif" font-size="14.00" fill="#000000">sbt-typelevel-mima</text>
</g>
<!-- tlmima&#45;&gt;mima -->
<g id="edge9" class="edge">
<title>tlmima-&gt;mima</title>
<path fill="none" stroke="#000000" d="M583.9232,-72.7542C568.5835,-63.066 549.2631,-50.8636 532.7564,-40.4384"/>
<polygon fill="#000000" stroke="#000000" points="534.2426,-37.2374 523.9187,-34.8566 530.5046,-43.1558 534.2426,-37.2374"/>
</g>
<!-- tlmima&#45;&gt;tlkernel -->
<g id="edge8" class="edge">
<title>tlmima-&gt;tlkernel</title>
<path fill="none" stroke="#000000" d="M673.7342,-77.5996C684.5502,-75.6134 695.7006,-73.6663 706.229,-72 822.0285,-53.6727 956.3919,-37.3991 1042.2979,-27.625"/>
<polygon fill="#000000" stroke="#000000" points="1042.7277,-31.0988 1052.2699,-26.4949 1041.9393,-24.1434 1042.7277,-31.0988"/>
</g>
<!-- tlsonatype -->
<g id="node16" class="node">
<title>tlsonatype</title>
<ellipse fill="none" stroke="#ff4c61" cx="229.229" cy="-90" rx="98.4139" ry="18"/>
<text text-anchor="middle" x="229.229" y="-85.8" font-family="Times,serif" font-size="14.00" fill="#000000">sbt-typelevel-sonatype</text>
</g>
<!-- tlsonatype&#45;&gt;mima -->
<g id="edge12" class="edge">
<title>tlsonatype-&gt;mima</title>
<path fill="none" stroke="#000000" d="M284.7588,-75.0816C329.1812,-63.1472 391.3682,-46.4402 436.988,-34.1842"/>
<polygon fill="#000000" stroke="#000000" points="437.9995,-37.5366 446.749,-31.5618 436.1833,-30.7763 437.9995,-37.5366"/>
</g>
<!-- tlsonatype&#45;&gt;sonatype -->
<g id="edge11" class="edge">
<title>tlsonatype-&gt;sonatype</title>
<path fill="none" stroke="#000000" d="M229.229,-71.8314C229.229,-64.131 229.229,-54.9743 229.229,-46.4166"/>
<polygon fill="#000000" stroke="#000000" points="232.7291,-46.4132 229.229,-36.4133 225.7291,-46.4133 232.7291,-46.4132"/>
</g>
<!-- tlsonatype&#45;&gt;tlkernel -->
<g id="edge10" class="edge">
<title>tlsonatype-&gt;tlkernel</title>
<path fill="none" stroke="#000000" d="M299.018,-77.2389C311.3838,-75.2697 324.1624,-73.4218 336.229,-72 586.3898,-42.5247 882.9313,-27.6445 1032.9214,-21.5203"/>
<polygon fill="#000000" stroke="#000000" points="1033.1754,-25.013 1043.0259,-21.1119 1032.8927,-18.0187 1033.1754,-25.013"/>
</g>
<!-- tlcisigning -->
<g id="node17" class="node">
<title>tlcisigning</title>
<ellipse fill="none" stroke="#ff4c61" cx="728.229" cy="-162" rx="102.5053" ry="18"/>
<text text-anchor="middle" x="728.229" y="-157.8" font-family="Times,serif" font-size="14.00" fill="#000000">sbt-typelevel-ci-signing</text>
</g>
<!-- tlcisigning&#45;&gt;gha -->
<g id="edge13" class="edge">
<title>tlcisigning-&gt;gha</title>
<path fill="none" stroke="#000000" d="M667.1148,-147.4297C616.0295,-135.2504 543.3636,-117.9261 491.2233,-105.4953"/>
<polygon fill="#000000" stroke="#000000" points="491.9482,-102.0701 481.4091,-103.1555 490.3248,-108.8793 491.9482,-102.0701"/>
</g>
<!-- tlcisigning&#45;&gt;gpg -->
<g id="edge14" class="edge">
<title>tlcisigning-&gt;gpg</title>
<path fill="none" stroke="#000000" d="M735.0423,-143.8314C738.0388,-135.8406 741.6233,-126.2819 744.9348,-117.4514"/>
<polygon fill="#000000" stroke="#000000" points="748.2774,-118.5057 748.5115,-107.9134 741.723,-116.0478 748.2774,-118.5057"/>
</g>
<!-- tlsonatypecirelease -->
<g id="node18" class="node">
<title>tlsonatypecirelease</title>
<ellipse fill="none" stroke="#ff4c61" cx="469.229" cy="-162" rx="138.8159" ry="18"/>
<text text-anchor="middle" x="469.229" y="-157.8" font-family="Times,serif" font-size="14.00" fill="#000000">sbt-typelevel-sonatype-ci-release</text>
</g>
<!-- tlsonatypecirelease&#45;&gt;gha -->
<g id="edge16" class="edge">
<title>tlsonatypecirelease-&gt;gha</title>
<path fill="none" stroke="#000000" d="M458.3783,-143.8314C453.4521,-135.5829 447.5281,-125.6635 442.1147,-116.5992"/>
<polygon fill="#000000" stroke="#000000" points="445.0597,-114.7042 436.9273,-107.9134 439.0499,-118.2935 445.0597,-114.7042"/>
</g>
<!-- tlsonatypecirelease&#45;&gt;tlsonatype -->
<g id="edge15" class="edge">
<title>tlsonatypecirelease-&gt;tlsonatype</title>
<path fill="none" stroke="#000000" d="M413.8668,-145.3913C377.0144,-134.3356 328.5691,-119.802 290.549,-108.396"/>
<polygon fill="#000000" stroke="#000000" points="291.2059,-104.939 280.6219,-105.4178 289.1944,-111.6438 291.2059,-104.939"/>
</g>
<!-- tlci -->
<g id="node19" class="node">
<title>tlci</title>
<ellipse fill="none" stroke="#ff4c61" cx="920.229" cy="-162" rx="71.2017" ry="18"/>
<text text-anchor="middle" x="920.229" y="-157.8" font-family="Times,serif" font-size="14.00" fill="#000000">sbt-typelevel-ci</text>
</g>
<!-- tlci&#45;&gt;gha -->
<g id="edge19" class="edge">
<title>tlci-&gt;gha</title>
<path fill="none" stroke="#000000" d="M868.7529,-149.5378C859.3017,-147.5008 849.4957,-145.5524 840.229,-144 697.3342,-120.0612 659.3999,-130.2282 516.229,-108 509.1926,-106.9076 501.8704,-105.648 494.5764,-104.313"/>
<polygon fill="#000000" stroke="#000000" points="495.1514,-100.8599 484.6772,-102.4544 493.8596,-107.7397 495.1514,-100.8599"/>
</g>
<!-- tlci&#45;&gt;tlkernel -->
<g id="edge17" class="edge">
<title>tlci-&gt;tlkernel</title>
<path fill="none" stroke="#000000" d="M958.9091,-146.8784C981.2653,-137.2939 1009.3953,-123.7497 1032.229,-108 1051.3797,-94.7907 1053.137,-87.7828 1070.229,-72 1080.813,-62.2267 1092.5715,-51.5953 1102.8547,-42.3707"/>
<polygon fill="#000000" stroke="#000000" points="1105.2703,-44.9059 1110.3869,-35.6284 1100.6016,-39.6902 1105.2703,-44.9059"/>
</g>
<!-- tlci&#45;&gt;tlnopub -->
<g id="edge18" class="edge">
<title>tlci-&gt;tlnopub</title>
<path fill="none" stroke="#000000" d="M919.7243,-143.8314C919.5104,-136.131 919.2561,-126.9743 919.0184,-118.4166"/>
<polygon fill="#000000" stroke="#000000" points="922.5169,-118.3122 918.7405,-108.4133 915.5196,-118.5066 922.5169,-118.3122"/>
</g>
<!-- tlciformat -->
<g id="node20" class="node">
<title>tlciformat</title>
<ellipse fill="none" stroke="#ff4c61" cx="101.229" cy="-234" rx="100.1123" ry="18"/>
<text text-anchor="middle" x="101.229" y="-229.8" font-family="Times,serif" font-size="14.00" fill="#000000">sbt-typelevel-ci-format</text>
</g>
<!-- tlciformat&#45;&gt;fmt -->
<g id="edge20" class="edge">
<title>tlciformat-&gt;fmt</title>
<path fill="none" stroke="#000000" d="M90.3783,-215.8314C85.4521,-207.5829 79.5281,-197.6635 74.1147,-188.5992"/>
<polygon fill="#000000" stroke="#000000" points="77.0597,-186.7042 68.9273,-179.9134 71.0499,-190.2935 77.0597,-186.7042"/>
</g>
<!-- tlciformat&#45;&gt;gha -->
<g id="edge21" class="edge">
<title>tlciformat-&gt;gha</title>
<path fill="none" stroke="#000000" d="M114.3088,-215.7812C130.1408,-195.1217 158.7512,-161.981 191.229,-144 205.7212,-135.9766 292.129,-117.2315 355.9829,-104.0902"/>
<polygon fill="#000000" stroke="#000000" points="356.9298,-107.4689 366.023,-102.0317 355.5238,-100.6116 356.9298,-107.4689"/>
</g>
<!-- tlciheader -->
<g id="node21" class="node">
<title>tlciheader</title>
<ellipse fill="none" stroke="#ff4c61" cx="319.229" cy="-234" rx="100.0949" ry="18"/>
<text text-anchor="middle" x="319.229" y="-229.8" font-family="Times,serif" font-size="14.00" fill="#000000">sbt-typelevel-ci-header</text>
</g>
<!-- tlciheader&#45;&gt;gha -->
<g id="edge23" class="edge">
<title>tlciheader-&gt;gha</title>
<path fill="none" stroke="#000000" d="M256.2893,-219.9972C235.1088,-211.9596 213.7062,-199.4316 201.229,-180 192.584,-166.5366 191.3231,-156.5647 201.229,-144 206.2015,-137.6929 292.789,-118.1881 357.0679,-104.4388"/>
<polygon fill="#000000" stroke="#000000" points="358.1259,-107.792 367.1768,-102.2844 356.6668,-100.9457 358.1259,-107.792"/>
</g>
<!-- tlciheader&#45;&gt;header -->
<g id="edge22" class="edge">
<title>tlciheader-&gt;header</title>
<path fill="none" stroke="#000000" d="M304.5932,-215.8314C297.6371,-207.1962 289.2059,-196.7299 281.6341,-187.3304"/>
<polygon fill="#000000" stroke="#000000" points="284.2589,-185.0096 275.26,-179.4177 278.8077,-189.4009 284.2589,-185.0096"/>
</g>
<!-- tlcirelease -->
<g id="node22" class="node">
<title>tlcirelease</title>
<polygon fill="none" stroke="#ff4c61" points="897.3216,-252 751.1365,-252 751.1365,-216 897.3216,-216 897.3216,-252"/>
<text text-anchor="middle" x="824.229" y="-229.8" font-family="Times,serif" font-size="14.00" fill="#000000">sbt-typelevel-ci-release</text>
</g>
<!-- tlcirelease&#45;&gt;tlgithub -->
<g id="edge25" class="edge">
<title>tlcirelease-&gt;tlgithub</title>
<path fill="none" stroke="#000000" d="M893.0171,-215.9243C936.164,-204.5864 991.4299,-190.064 1033.7365,-178.947"/>
<polygon fill="#000000" stroke="#000000" points="1034.8665,-182.2689 1043.6487,-176.3423 1033.0875,-175.4987 1034.8665,-182.2689"/>
</g>
<!-- tlcirelease&#45;&gt;tlversioning -->
<g id="edge26" class="edge">
<title>tlcirelease-&gt;tlversioning</title>
<path fill="none" stroke="#000000" d="M897.7248,-218.3719C902.2876,-217.5326 906.8167,-216.734 911.229,-216 1037.1717,-195.0503 1069.8251,-197.9583 1196.229,-180 1205.1885,-178.7271 1214.5349,-177.3431 1223.8529,-175.9268"/>
<polygon fill="#000000" stroke="#000000" points="1224.5791,-179.3565 1233.933,-174.3811 1223.518,-172.4374 1224.5791,-179.3565"/>
</g>
<!-- tlcirelease&#45;&gt;tlcisigning -->
<g id="edge28" class="edge">
<title>tlcirelease-&gt;tlcisigning</title>
<path fill="none" stroke="#000000" d="M800.0042,-215.8314C787.884,-206.7412 773.0582,-195.6219 760.0343,-185.8539"/>
<polygon fill="#000000" stroke="#000000" points="761.8824,-182.8651 751.7824,-179.665 757.6824,-188.4651 761.8824,-182.8651"/>
</g>
<!-- tlcirelease&#45;&gt;tlsonatypecirelease -->
<g id="edge27" class="edge">
<title>tlcirelease-&gt;tlsonatypecirelease</title>
<path fill="none" stroke="#000000" d="M751.1032,-219.1689C693.8073,-207.5483 614.0079,-191.3636 553.9355,-179.1799"/>
<polygon fill="#000000" stroke="#000000" points="554.5897,-175.7414 544.0935,-177.1838 553.1982,-182.6017 554.5897,-175.7414"/>
</g>
<!-- tlcirelease&#45;&gt;tlci -->
<g id="edge24" class="edge">
<title>tlcirelease-&gt;tlci</title>
<path fill="none" stroke="#000000" d="M848.4539,-215.8314C860.7563,-206.6045 875.8464,-195.287 889.0101,-185.4142"/>
<polygon fill="#000000" stroke="#000000" points="891.4337,-187.9715 897.3338,-179.1715 887.2337,-182.3715 891.4337,-187.9715"/>
</g>
<!-- tl -->
<g id="node23" class="node">
<title>tl</title>
<polygon fill="none" stroke="#ff4c61" points="868.541,-324 779.9171,-324 779.9171,-288 868.541,-288 868.541,-324"/>
<text text-anchor="middle" x="824.229" y="-301.8" font-family="Times,serif" font-size="14.00" fill="#000000">sbt-typelevel</text>
</g>
<!-- tl&#45;&gt;sjscp -->
<g id="edge33" class="edge">
<title>tl-&gt;sjscp</title>
<path fill="none" stroke="#000000" d="M868.5753,-292.1177C904.3162,-280.9292 954.9225,-265.0873 994.2746,-252.7683"/>
<polygon fill="#000000" stroke="#000000" points="995.5233,-256.045 1004.021,-249.7173 993.4321,-249.3647 995.5233,-256.045"/>
</g>
<!-- tl&#45;&gt;tlsettings -->
<g id="edge29" class="edge">
<title>tl-&gt;tlsettings</title>
<path fill="none" stroke="#000000" d="M854.3269,-287.9662C870.2285,-278.0005 889.8,-265.0258 906.229,-252 924.4589,-237.5464 922.9546,-225.4144 944.229,-216 1042.0456,-172.7139 1318.0832,-193.223 1424.229,-180 1432.7363,-178.9402 1441.6101,-177.6589 1450.4256,-176.2738"/>
<polygon fill="#000000" stroke="#000000" points="1451.0182,-179.7235 1460.3313,-174.6721 1449.9008,-172.8133 1451.0182,-179.7235"/>
</g>
<!-- tl&#45;&gt;tlciformat -->
<g id="edge31" class="edge">
<title>tl-&gt;tlciformat</title>
<path fill="none" stroke="#000000" d="M779.8015,-303.2545C678.5172,-296.7415 422.8235,-278.8629 210.229,-252 201.3555,-250.8788 192.0979,-249.5687 182.8906,-248.1759"/>
<polygon fill="#000000" stroke="#000000" points="183.3575,-244.7066 172.94,-246.637 182.2876,-251.6243 183.3575,-244.7066"/>
</g>
<!-- tl&#45;&gt;tlciheader -->
<g id="edge32" class="edge">
<title>tl-&gt;tlciheader</title>
<path fill="none" stroke="#000000" d="M779.8562,-299.6736C696.884,-287.8439 516.8174,-262.171 408.0227,-246.6597"/>
<polygon fill="#000000" stroke="#000000" points="408.4409,-243.184 398.047,-245.2374 407.4528,-250.1139 408.4409,-243.184"/>
</g>
<!-- tl&#45;&gt;tlcirelease -->
<g id="edge30" class="edge">
<title>tl-&gt;tlcirelease</title>
<path fill="none" stroke="#000000" d="M824.229,-287.8314C824.229,-280.131 824.229,-270.9743 824.229,-262.4166"/>
<polygon fill="#000000" stroke="#000000" points="827.7291,-262.4132 824.229,-252.4133 820.7291,-262.4133 827.7291,-262.4132"/>
</g>
</g>
</svg>